<svg id="Imagen_1-_Web" data-name="Imagen 1- Web" xmlns="http://www.w3.org/2000/svg" xmlns:xlink="http://www.w3.org/1999/xlink" width="366.462" height="297.991" viewBox="0 0 366.462 297.991">
  <defs>
    <clipPath id="clip-path">
      <path id="Trazado_63109" data-name="Trazado 63109" d="M229.891,244.844c0-1.274-1.06-16.256-1.06-16.256.353-27.211-12.722-40.639-12.722-40.639-20.5-3.534-44.173,10.248-49.121,13.782s-13.782.707-13.782.707c7.841,15.682-2.076,44.187-2.786,46.179.124-.479.228-2.593-4.635-8.367-5.654-6.714-9.188,1.414-9.188,1.414-6.361,26.5,12.456,25.444,12.456,25.444a5.249,5.249,0,0,1,2.707-.041c2.578,14.814,19.174,26.165,38.905,26.192,17.034.023,30.665-11.477,37.105-25.444l.028-.353C230.245,259.333,229.891,247.671,229.891,244.844Z" transform="translate(-135.284 -187.374)" fill="none"/>
    </clipPath>
    <clipPath id="clip-path-2">
      <path id="Trazado_63111" data-name="Trazado 63111" d="M236,384.988a1.082,1.082,0,0,1,.534-.933c1.515-.894,5.863-3.088,7.887-.2,2.474,3.534,7.421,1.06,8.128,2.827s.707,5.455,0,6.261-1.59,2.4-2.12,2.927c-.5.5-12.953,2.558-14.428-10.736Z" transform="translate(-236 -382.414)" fill="none"/>
    </clipPath>
    <clipPath id="clip-path-3">
      <path id="Trazado_63114" data-name="Trazado 63114" d="M255,482.324V464.71L273.817,459l5.29,2.65v2.808l-.077,18.572-11.662,26.857Z" transform="translate(-255 -459)" fill="none"/>
    </clipPath>
    <clipPath id="clip-path-4">
      <path id="Trazado_63119" data-name="Trazado 63119" d="M249.565,653.339l-14.483-94.5c7.942-4.772,10.269-31.5,10.269-31.5-5.616-2.863-32.227-3.341-32.227-3.341s-13.154,1.977-15.871,3.051c-2.716-1.075-15.871-3.051-15.871-3.051s-26.611.477-32.226,3.341c0,0,2.327,26.727,10.269,31.5l-14.482,94.5L195.2,646.4s1.053-25.946,2.057-47.288c1,21.342,2.057,47.288,2.057,47.288Z" transform="translate(-144.943 -524)" fill="none"/>
    </clipPath>
    <clipPath id="clip-path-5">
      <path id="Trazado_63121" data-name="Trazado 63121" d="M145,653.339l14.483-94.5c-7.942-4.772-10.269-31.5-10.269-31.5C154.829,524.477,181.44,524,181.44,524s13.154,1.977,15.871,3.051c2.716-1.075,15.871-3.051,15.871-3.051s26.611.477,32.226,3.341c0,0-2.327,26.727-10.269,31.5l14.482,94.5L199.368,646.4s-1.053-25.946-2.057-47.288c-1,21.342-2.057,47.288-2.057,47.288Z" transform="translate(-145 -524)" fill="none"/>
    </clipPath>
  </defs>
  <circle id="Elipse_857" data-name="Elipse 857" cx="90" cy="90" r="90" transform="translate(14 89)" fill="#818285" opacity="0.07"/>
  <g id="Grupo_51583" data-name="Grupo 51583" transform="translate(-73 -1558.009)">
    <g id="Grupo_51514" data-name="Grupo 51514" transform="translate(113 1570.009)">
      <path id="Trazado_63093" data-name="Trazado 63093" d="M126.226,247.966s-62.9-87.64-14.135-116.617c0,0,34.985-72.8,91.88-43.82,0,0,36.045,15.2,20.85,57.6s-7.421,81.632-7.421,81.632,3.887,15.9-3.18,20.143-50.181,8.835-50.181,8.835L128.7,250.793Z" transform="translate(-93.559 -80.713)" fill="#43240e"/>
      <path id="Trazado_63094" data-name="Trazado 63094" d="M133,413" transform="translate(-119.062 -295.574)" fill="#fff"/>
      <path id="Trazado_63095" data-name="Trazado 63095" d="M167.4,560.053s.707-3.534-.707-3.887c-1.06-.265-5.9,3.048-8.995,7.4-.075.106-.147.213-.219.319l-.01-.007.23-.313v-7.088a15.753,15.753,0,0,0-8.321,18.059s-12.135,12.365-19.265,24.008h0s11.137-32.136,9.017-44.858c0,0-9.541-23.323-9.365-23.147,0,0-24.384,39.579-16.609,83.752,0,0,10.217,40.639,47.868-32.511l.722-1.59a14.017,14.017,0,0,0,6.008-12.015S168.812,562.173,167.4,560.053Z" transform="translate(-105.24 -371.58)" fill="#f1af9d"/>
      <path id="Trazado_63096" data-name="Trazado 63096" d="M315.2,560.053s-.707-3.534.707-3.887c1.06-.265,5.9,3.048,8.995,7.4.075.106.147.213.219.319l.01-.007-.23-.313v-7.088a15.753,15.753,0,0,1,8.321,18.059s12.135,12.365,19.265,24.008h0s-11.137-32.136-9.017-44.858c0,0,9.541-23.323,9.365-23.147,0,0,24.384,39.579,16.609,83.752,0,0-10.217,40.639-47.868-32.511l-.722-1.59a14.017,14.017,0,0,1-6.008-12.015S313.788,562.173,315.2,560.053Z" transform="translate(-236.401 -371.58)" fill="#f1af9d"/>
      <path id="Trazado_63097" data-name="Trazado 63097" d="M249.565,653.339l-14.483-94.5c7.942-4.772,10.269-31.5,10.269-31.5-5.616-2.863-32.227-3.341-32.227-3.341s-13.154,1.977-15.871,3.051c-2.716-1.075-15.871-3.051-15.871-3.051s-26.611.477-32.226,3.341c0,0,2.327,26.727,10.269,31.5l-14.482,94.5L195.2,646.4s1.053-25.946,2.057-47.288c1,21.342,2.057,47.288,2.057,47.288Z" transform="translate(-126.785 -367.349)" fill="#c28f22"/>
      <path id="Trazado_63098" data-name="Trazado 63098" d="M255,482.324V464.71L273.817,459l5.29,2.65v2.808l-.077,18.572-11.662,26.857Z" transform="translate(-197.949 -325.319)" fill="#f1af9d"/>
      <g id="Grupo_51501" data-name="Grupo 51501" transform="translate(14.745 37.693)">
        <path id="Trazado_63099" data-name="Trazado 63099" d="M229.891,244.844c0-1.274-1.06-16.256-1.06-16.256.353-27.211-12.722-40.639-12.722-40.639-20.5-3.534-44.173,10.248-49.121,13.782s-13.782.707-13.782.707c7.841,15.682-2.076,44.187-2.786,46.179.124-.479.228-2.593-4.635-8.367-5.654-6.714-9.188,1.414-9.188,1.414-6.361,26.5,12.456,25.444,12.456,25.444a5.249,5.249,0,0,1,2.707-.041c2.578,14.814,19.174,26.165,38.905,26.192,17.034.023,30.665-11.477,37.105-25.444l.028-.353C230.245,259.333,229.891,247.671,229.891,244.844Z" transform="translate(-135.284 -187.374)" fill="#f1af9d"/>
        <path id="Trazado_63100" data-name="Trazado 63100" d="M236,384.988a1.082,1.082,0,0,1,.534-.933c1.515-.894,5.863-3.088,7.887-.2,2.474,3.534,7.421,1.06,8.128,2.827s.707,5.455,0,6.261-1.59,2.4-2.12,2.927c-.5.5-12.953,2.558-14.428-10.736Z" transform="translate(-200.409 -313.49)" fill="#661216"/>
        <path id="Trazado_63101" data-name="Trazado 63101" d="M310.1,355s2.6,5.756,2.358,7.515-5.164,1.252-5.164,1.252h-1.511S308.333,355.959,310.1,355Z" transform="translate(-245.531 -295.763)" fill="#3c3c3c" opacity="0.2"/>
        <path id="Trazado_63102" data-name="Trazado 63102" d="M297.427,307.795s-4.594-1.414-6.891,0-.53-2.561,0-3.047,4.041-.748,4.041-.748h3.507v2.606Z" transform="translate(-234.929 -262.786)" fill="#3c3c3c" opacity="0.2"/>
        <g id="Grupo_51494" data-name="Grupo 51494" transform="translate(26.58 20.541)">
          <ellipse id="Elipse_837" data-name="Elipse 837" cx="13.429" cy="18.199" rx="13.429" ry="18.199" transform="translate(1.237 1.237)" fill="#cfcfcf"/>
          <path id="Trazado_63103" data-name="Trazado 63103" d="M225.166,284.372c-8.087,0-14.666-8.719-14.666-19.436s6.579-19.436,14.666-19.436,14.665,8.719,14.665,19.436S233.252,284.372,225.166,284.372Zm0-36.4c-6.722,0-12.192,7.609-12.192,16.963s5.469,16.963,12.192,16.963,12.192-7.609,12.192-16.963S231.888,247.974,225.166,247.974Z" transform="translate(-210.5 -245.5)" fill="#303030"/>
        </g>
        <g id="Grupo_51495" data-name="Grupo 51495" transform="translate(62.272 23.368)">
          <ellipse id="Elipse_838" data-name="Elipse 838" cx="13.429" cy="18.199" rx="13.429" ry="18.199" transform="translate(1.237 1.237)" fill="#cfcfcf"/>
          <path id="Trazado_63104" data-name="Trazado 63104" d="M326.166,292.372c-8.086,0-14.665-8.719-14.665-19.436s6.579-19.436,14.665-19.436,14.665,8.719,14.665,19.436S334.252,292.372,326.166,292.372Zm0-36.4c-6.722,0-12.192,7.609-12.192,16.963s5.469,16.963,12.192,16.963,12.192-7.609,12.192-16.963S332.888,255.974,326.166,255.974Z" transform="translate(-311.5 -253.5)" fill="#303030"/>
        </g>
        <g id="Grupo_51496" data-name="Grupo 51496" transform="translate(54.244 40.066)">
          <path id="Trazado_63105" data-name="Trazado 63105" d="M289.763,304.962s6.975-2.035,8.918.792" transform="translate(-289.416 -303.017)" fill="#cfcfcf"/>
          <path id="Trazado_63106" data-name="Trazado 63106" d="M297.028,304.192c-1.086-1.579-5.558-.887-7.553-.305l-.693-2.375c.8-.234,7.9-2.186,10.284,1.279Z" transform="translate(-288.782 -300.753)" fill="#303030"/>
        </g>
        <ellipse id="Elipse_839" data-name="Elipse 839" cx="2.65" cy="5.124" rx="2.65" ry="5.124" transform="translate(38.772 44.748)" fill="#282424"/>
        <ellipse id="Elipse_840" data-name="Elipse 840" cx="2.65" cy="5.124" rx="2.65" ry="5.124" transform="translate(74.111 47.221)" fill="#282424"/>
        <path id="Trazado_63107" data-name="Trazado 63107" d="M296.23,356.3a7.959,7.959,0,0,1,1.509-4.567c.575-1.047,1.281-1.832.825-2.907a5.711,5.711,0,0,0-2.729-2.135c-1.25-.6-2.639-1.086-4.022-1.588a.423.423,0,0,1,.113-.816c3.169-.188,8.084.63,9.145,4.22a3.817,3.817,0,0,1-.15,2.358c-.907,2.2-2.846,3.462-3.505,5.584a.612.612,0,0,1-1.185-.149Z" transform="translate(-236.322 -288.822)" fill="#040405"/>
        <g id="Grupo_51498" data-name="Grupo 51498" transform="translate(0)">
          <g id="Grupo_51497" data-name="Grupo 51497" clip-path="url(#clip-path)">
            <path id="Trazado_63108" data-name="Trazado 63108" d="M325.047,301c-7.129.149,11.984,55.455-43.687,66.02a3.54,3.54,0,0,0,2.63,3.621c2.924.992,19.673-2.6,20.484-2.891s15.209-8.126,17.759-13.035,3.58-8.9,5.9-14.425,7.053-9.834,5.523-16.148-3.733-12.1-5.862-15.159S325.047,301,325.047,301Z" transform="translate(-229.734 -260.846)" fill="#3c3c3c" opacity="0.2"/>
          </g>
        </g>
        <g id="Grupo_51500" data-name="Grupo 51500" transform="translate(35.591 68.924)">
          <g id="Grupo_51499" data-name="Grupo 51499" clip-path="url(#clip-path-2)">
            <path id="Trazado_63110" data-name="Trazado 63110" d="M236.156,387.351c2.571,2.655,5.31,5.8,9.246,6.044a.506.506,0,1,1-.072,1.009,9.28,9.28,0,0,1-2.939-.837,12.211,12.211,0,0,1-2.519-1.621,35.933,35.933,0,0,1-4.035-4.184.261.261,0,1,1,.319-.412Z" transform="translate(-235.824 -385.565)" fill="#300c0f"/>
          </g>
        </g>
        <path id="Trazado_63112" data-name="Trazado 63112" d="M152.923,357.659c-.719-1.709-2.53-3.679-4.518-2.722-1.594.609-1.692,2.481-1.5,4.028a17.043,17.043,0,0,0,2.38,6.606,2.566,2.566,0,0,0,3.839-.2.328.328,0,0,1,.523.395,3.315,3.315,0,0,1-4.637.651,4.208,4.208,0,0,1-1.026-1.357,19.1,19.1,0,0,1-2.119-5.951c-.3-1.715-.135-4.112,1.657-5.087a4.005,4.005,0,0,1,3.074-.463,5.4,5.4,0,0,1,2.772,2.078c.371.6,1.553,1.869.541,2.414a.724.724,0,0,1-.984-.391Z" transform="translate(-142.046 -294.745)" fill="#b1604d"/>
      </g>
      <g id="Grupo_51503" data-name="Grupo 51503" transform="translate(57.051 133.681)" opacity="0.44">
        <g id="Grupo_51502" data-name="Grupo 51502" transform="translate(0)" clip-path="url(#clip-path-3)">
          <path id="Trazado_63113" data-name="Trazado 63113" d="M279.284,521s-7.039,3.521-13.039,28.826c-6-25.3-13.039-28.826-13.039-28.826l.707,6.714,11.975,23.623c-5.477,23.246.006,1.4.006,1.4l.351-.693.351.693s5.483,21.849.006-1.4l11.975-23.623Z" transform="translate(-253.84 -499.09)" fill="#3c3c3c" opacity="0.2"/>
        </g>
      </g>
      <path id="Trazado_63115" data-name="Trazado 63115" d="M275.542,773.516h9.468l-4.734-52.932-11.109,12.092,2.415,29.048Z" transform="translate(-207.11 -494.463)" fill="#c28f22"/>
      <path id="Trazado_63116" data-name="Trazado 63116" d="M289.323,602.476a1.089,1.089,0,0,1,.213.729l.046.739.089,1.479c.109,1.8.4,6.982.5,8.872,1.013,19.721,1.885,39.459,1.723,59.212-.16,6.911-.2,13.885-1.44,20.709a13.767,13.767,0,0,1-.878,2.886.247.247,0,0,1-.45-.2,21.6,21.6,0,0,0,1.24-5.7c1.284-13.741.64-27.589.278-41.366-.529-14.75-1.353-29.6-2.341-44.328l-.1-1.476-.052-.738a1.084,1.084,0,0,1,.116-.751.662.662,0,0,1,1.056-.07Z" transform="translate(-219.375 -417.943)" fill="#755517"/>
      <g id="Grupo_51504" data-name="Grupo 51504" transform="translate(51.927 149.407)">
        <rect id="Rectángulo_13761" data-name="Rectángulo 13761" width="36.045" height="66.083" rx="5" transform="translate(0.53 0.53)" fill="#353434"/>
        <path id="Trazado_63117" data-name="Trazado 63117" d="M272.835,570.643H245.271a4.776,4.776,0,0,1-4.771-4.771v-57.6a4.776,4.776,0,0,1,4.771-4.771h27.564a4.776,4.776,0,0,1,4.771,4.771v57.6A4.776,4.776,0,0,1,272.835,570.643ZM245.271,504.56a3.715,3.715,0,0,0-3.711,3.711v57.6a3.715,3.715,0,0,0,3.711,3.711h27.564a3.715,3.715,0,0,0,3.711-3.711v-57.6a3.715,3.715,0,0,0-3.711-3.711Z" transform="translate(-240.5 -503.5)" fill="#2a2a2a"/>
      </g>
      <g id="Grupo_51506" data-name="Grupo 51506" transform="translate(18.158 156.651)">
        <g id="Grupo_51505" data-name="Grupo 51505" transform="translate(0 0)" clip-path="url(#clip-path-4)">
          <path id="Trazado_63118" data-name="Trazado 63118" d="M166.888,581.037s.707-3.534-.707-3.887c-1.06-.265-5.9,3.048-8.995,7.4-.075.106-.147.213-.219.319l-.01-.007.23-.313v-7.088a15.754,15.754,0,0,0-8.321,18.06s-12.135,12.365-19.265,24.008h0s.729-27.205-1.392-39.927c0,0-3.711-16.786-3.534-16.609,0,0-19.806,28.111-12.032,72.284,0,0,10.217,40.639,47.868-32.512l.722-1.59a14.017,14.017,0,0,0,6.008-12.015S168.3,583.157,166.888,581.037Z" transform="translate(-122.888 -549.215)" fill="#f1af9d"/>
        </g>
      </g>
      <g id="Grupo_51508" data-name="Grupo 51508" transform="translate(18.179 156.651)">
        <g id="Grupo_51507" data-name="Grupo 51507" transform="translate(0 0)" clip-path="url(#clip-path-5)">
          <path id="Trazado_63120" data-name="Trazado 63120" d="M315.2,581.037s-.707-3.534.707-3.887c1.06-.265,5.9,3.048,8.995,7.4.075.106.147.213.219.319l.01-.007-.23-.313v-7.088a15.754,15.754,0,0,1,8.321,18.06s12.135,12.365,19.265,24.008h0s-.729-27.205,1.392-39.927c0,0,3.711-16.786,3.534-16.609,0,0,19.806,28.111,12.032,72.284,0,0-10.217,40.639-47.868-32.512l-.722-1.59a14.017,14.017,0,0,1-6.008-12.015S313.788,583.157,315.2,581.037Z" transform="translate(-254.58 -549.215)" fill="#f1af9d"/>
        </g>
      </g>
      <path id="Trazado_63122" data-name="Trazado 63122" d="M217.5,234.457s6.375-6.714,17.5-4.771C235,229.687,222.8,216.788,217.5,234.457Z" transform="translate(-173.701 -174.104)" fill="#43240e"/>
      <path id="Trazado_63123" data-name="Trazado 63123" d="M339.269,234.526s8.952-2.362,17.4,5.138C356.664,239.664,353.065,222.279,339.269,234.526Z" transform="translate(-252.439 -177.345)" fill="#43240e"/>
      <g id="Grupo_51512" data-name="Grupo 51512" transform="translate(89.775 132.628)">
        <rect id="Rectángulo_13762" data-name="Rectángulo 13762" width="222.36" height="45.128" rx="12" transform="translate(14.327 0)" fill="#ebebeb"/>
        <path id="Trazado_63124" data-name="Trazado 63124" d="M362.833,516.228,347.6,523.662l15.455,6.44Z" transform="translate(-347.603 -491.745)" fill="#ebebeb"/>
        <g id="Grupo_51509" data-name="Grupo 51509" transform="translate(199.396 11.446)">
          <path id="Trazado_63125" data-name="Trazado 63125" d="M843.624,499.057l-5.657-5.658,2.393-2.393,3.263,3.263,10.1-10.1,2.393,2.393Z" transform="translate(-825.967 -484.166)" fill="#5a5a5a" opacity="0.34"/>
          <path id="Trazado_63126" data-name="Trazado 63126" d="M863.046,514.371l-5.656-5.658,2.393-2.393,3.263,3.263,10.1-10.1,2.393,2.393Z" transform="translate(-845.389 -492.034)" fill="#5a5a5a" opacity="0.34"/>
        </g>
        <g id="Grupo_51510" data-name="Grupo 51510" transform="translate(25.824 13.191)">
          <path id="Trazado_63127" data-name="Trazado 63127" d="M422.411,508.138l-2.738-5.208h-3.651v5.208h-4.912V489.319h8.457a8.725,8.725,0,0,1,5.785,1.731,6.024,6.024,0,0,1,2.054,4.873,7.424,7.424,0,0,1-.859,3.665,5.937,5.937,0,0,1-2.5,2.4l3.92,6.148Zm-6.39-9.128h3.571a3.308,3.308,0,0,0,2.322-.752,2.8,2.8,0,0,0,.819-2.174,2.691,2.691,0,0,0-.819-2.107,3.345,3.345,0,0,0-2.322-.739h-3.571Z" transform="translate(-411.109 -488.944)" fill="#2c9858"/>
          <path id="Trazado_63128" data-name="Trazado 63128" d="M455.733,489.319h14.846v3.92h-9.933v3.517h8.967v3.893l-8.967.026v3.545h10.2v3.919H455.733Z" transform="translate(-436.296 -488.944)" fill="#2c9858"/>
          <path id="Trazado_63129" data-name="Trazado 63129" d="M505.287,493.047a9.448,9.448,0,0,0-2.859-.564,2.646,2.646,0,0,0-1.437.335,1.094,1.094,0,0,0-.523.98,1.341,1.341,0,0,0,.456,1.034,3.472,3.472,0,0,0,1.128.671q.67.256,1.987.658a25.8,25.8,0,0,1,3.235,1.129,5.658,5.658,0,0,1,2.187,1.73,4.81,4.81,0,0,1,.913,3.048,5.2,5.2,0,0,1-.993,3.208,6.021,6.021,0,0,1-2.724,2,10.58,10.58,0,0,1-3.853.672,13.926,13.926,0,0,1-4.658-.819,12.739,12.739,0,0,1-4.014-2.24l1.906-3.84a11.849,11.849,0,0,0,3.369,2.067,9.192,9.192,0,0,0,3.45.805,3.2,3.2,0,0,0,1.731-.4,1.315,1.315,0,0,0,.631-1.181,1.4,1.4,0,0,0-.47-1.074,3.458,3.458,0,0,0-1.181-.684q-.712-.255-2-.6a24.656,24.656,0,0,1-3.194-1.088,5.654,5.654,0,0,1-2.161-1.664,4.582,4.582,0,0,1-.9-2.967,5.189,5.189,0,0,1,.926-3.061,5.9,5.9,0,0,1,2.631-2.026,10.23,10.23,0,0,1,3.96-.711,14.389,14.389,0,0,1,4.027.577,13.268,13.268,0,0,1,3.491,1.544L508.5,494.5A16.487,16.487,0,0,0,505.287,493.047Z" transform="translate(-457.971 -488.457)" fill="#2c9858"/>
          <path id="Trazado_63130" data-name="Trazado 63130" d="M542.375,503.225a3.552,3.552,0,0,0,2.658,1.075,3.328,3.328,0,0,0,2.564-1.061,4.051,4.051,0,0,0,.98-2.86V489.319h4.913V500.38a8.6,8.6,0,0,1-1.034,4.282,7,7,0,0,1-2.953,2.832,9.661,9.661,0,0,1-4.5.993,9.825,9.825,0,0,1-4.523-.993,7.132,7.132,0,0,1-3.007-2.832,8.417,8.417,0,0,1-1.061-4.282V489.319h4.914V500.38A3.9,3.9,0,0,0,542.375,503.225Z" transform="translate(-481.836 -488.944)" fill="#2c9858"/>
          <path id="Trazado_63131" data-name="Trazado 63131" d="M583.32,489.319h4.913V503.95h7.974v4.188H583.32Z" transform="translate(-508.311 -488.944)" fill="#2c9858"/>
          <path id="Trazado_63132" data-name="Trazado 63132" d="M614.261,489.319H630.4v4.053h-5.638v14.766h-4.913V493.372h-5.584Z" transform="translate(-525.776 -488.944)" fill="#2c9858"/>
          <path id="Trazado_63133" data-name="Trazado 63133" d="M662.529,508.138l-1.289-3.329h-8.134l-1.316,3.329h-5.047l8.081-18.819h5.047l7.893,18.819Zm-7.947-7.088h5.208l-2.578-6.711Z" transform="translate(-544.11 -488.944)" fill="#2c9858"/>
          <path id="Trazado_63134" data-name="Trazado 63134" d="M712.216,490.5a8.662,8.662,0,0,1,3.531,3.315,10.124,10.124,0,0,1-.014,9.813,8.631,8.631,0,0,1-3.6,3.328,11.587,11.587,0,0,1-5.329,1.182h-7.92V489.319h8.108A11.149,11.149,0,0,1,712.216,490.5Zm-2.564,12.994a4.562,4.562,0,0,0,1.718-1.906,6.228,6.228,0,0,0,.618-2.82,5.969,5.969,0,0,0-.658-2.846A4.816,4.816,0,0,0,709.518,494a5.063,5.063,0,0,0-2.631-.684H703.8v10.845h3.33A4.747,4.747,0,0,0,709.653,503.494Z" transform="translate(-573.542 -488.944)" fill="#2c9858"/>
          <path id="Trazado_63135" data-name="Trazado 63135" d="M757.958,489.9a9.357,9.357,0,0,1,4.98,8.4,9.524,9.524,0,0,1-4.98,8.511,11.171,11.171,0,0,1-10.39.013,9.45,9.45,0,0,1-3.651-3.516,9.634,9.634,0,0,1-1.328-5.008,9.357,9.357,0,0,1,4.98-8.4,11.328,11.328,0,0,1,10.39,0Zm-7.732,3.625a5.215,5.215,0,0,0-1.893,2,5.989,5.989,0,0,0,.014,5.637,5.461,5.461,0,0,0,1.892,2.014,4.774,4.774,0,0,0,2.578.738,4.7,4.7,0,0,0,2.564-.738,5.2,5.2,0,0,0,1.839-2.014,6.255,6.255,0,0,0,0-5.637,5.091,5.091,0,0,0-1.839-2,4.761,4.761,0,0,0-2.564-.725A4.9,4.9,0,0,0,750.226,493.528Z" transform="translate(-598.208 -488.561)" fill="#2c9858"/>
          <path id="Trazado_63136" data-name="Trazado 63136" d="M802.865,493.047a9.45,9.45,0,0,0-2.859-.564,2.645,2.645,0,0,0-1.436.335,1.093,1.093,0,0,0-.524.98,1.342,1.342,0,0,0,.457,1.034,3.472,3.472,0,0,0,1.128.671q.671.256,1.986.658a25.8,25.8,0,0,1,3.235,1.129,5.658,5.658,0,0,1,2.187,1.73,4.81,4.81,0,0,1,.913,3.048,5.2,5.2,0,0,1-.993,3.208,6.021,6.021,0,0,1-2.724,2,10.581,10.581,0,0,1-3.853.672,13.923,13.923,0,0,1-4.658-.819,12.736,12.736,0,0,1-4.014-2.24l1.906-3.84a11.844,11.844,0,0,0,3.369,2.067,9.192,9.192,0,0,0,3.45.805,3.2,3.2,0,0,0,1.731-.4,1.315,1.315,0,0,0,.631-1.181,1.4,1.4,0,0,0-.47-1.074,3.463,3.463,0,0,0-1.181-.684q-.712-.255-2-.6a24.651,24.651,0,0,1-3.194-1.088,5.653,5.653,0,0,1-2.161-1.664,4.582,4.582,0,0,1-.9-2.967,5.19,5.19,0,0,1,.926-3.061,5.9,5.9,0,0,1,2.631-2.026,10.23,10.23,0,0,1,3.96-.711,14.39,14.39,0,0,1,4.027.577,13.268,13.268,0,0,1,3.49,1.544l-1.853,3.92A16.486,16.486,0,0,0,802.865,493.047Z" transform="translate(-625.935 -488.457)" fill="#2c9858"/>
        </g>
      </g>
      <g id="Grupo_51513" data-name="Grupo 51513" transform="translate(58.465 158.065)">
        <ellipse id="Elipse_841" data-name="Elipse 841" cx="2.65" cy="2.65" rx="2.65" ry="2.65" transform="translate(0.353 0.353)" fill="#040405"/>
        <path id="Trazado_63139" data-name="Trazado 63139" d="M262,534.008a3,3,0,1,1,3-3A3.007,3.007,0,0,1,262,534.008Zm0-5.3a2.3,2.3,0,1,0,2.3,2.3A2.3,2.3,0,0,0,262,528.707Z" transform="translate(-259 -528)" fill="#cfcdcd"/>
      </g>
    </g>
    <text id="ENVÍA_LA_palabra" data-name="ENVÍA LA
palabra" transform="translate(249.38 1664.009)" fill="#17a76c" font-size="20" font-family="Montserrat-Black, Montserrat" font-weight="800"><tspan x="0" y="0">ENVÍA LA</tspan><tspan font-size="33"><tspan x="0" y="30">PALABRA</tspan></tspan></text>
    <text id="AL_55_3956_6729" data-name="AL 55 3956 6729" transform="translate(284.38 1765.009)" fill="#818285" font-size="16" font-family="Montserrat-Black, Montserrat" font-weight="800"><tspan x="0" y="0">AL 55 3956 6729</tspan></text>
    <circle id="Elipse_842" data-name="Elipse 842" cx="32.5" cy="32.5" r="32.5" transform="translate(73 1558.009)" fill="#ffb71b"/>
    <text id="_1" data-name="1" transform="translate(99 1603.009)" fill="#fff" font-size="34" font-family="Montserrat-Black, Montserrat" font-weight="800"><tspan x="0" y="0">1</tspan></text>
  </g>
</svg>
