<svg id="Capa_1" data-name="Capa 1" fill="#fff" xmlns="http://www.w3.org/2000/svg" viewBox="0 0 251.03 210.61"><path d="M327.18,195.6h100c7.74,0,9.84,2.06,9.85,9.65v161c0,7.92-2.08,10-10.07,10q-65,0-130-.07c-3.23,0-5,.94-6.75,3.65-11,16.64-26.61,26.24-46.55,26.36-28.83.17-54.56-19.84-57.4-51.27-2.07-22.89,7.3-41,26.75-53.57,3.11-2,4.45-3.89,4.42-7.8-.22-29.32-.13-58.65-.11-88,0-8.37,1.58-10,9.87-10ZM229,294.78c21.06-4.31,39.2.25,53.85,15.15s19.33,33.21,14.82,53.76H425.05a24.54,24.54,0,0,0,.35-2.77c0-36.66,0-73.32.1-110,0-4.32-2.18-4.26-5.33-4.26q-93.48.09-187,0c-1.28,0-2.56.11-4.21.18v47.87Zm58.13,54.78c2.39-20.29-16.12-44.38-43.35-45.09-25.05-.65-45.31,18.77-46.1,43.85-.84,26.86,20.53,45.24,41.1,46.08C267.47,395.57,286.4,377.54,287.12,349.56ZM229.07,235.23H363c19.15,0,38.29-.08,57.43.07,3.84,0,5.41-1,5.2-5.06a172.74,172.74,0,0,1,0-17.48c.2-4-1.15-5-5.11-5q-93.39.19-186.79.09h-4.64Z" transform="translate(-185.98 -195.6)"/><path d="M354,282.87c10,0,19.35,0,28.65,0,2.73,0,3.34-1.36,3.27-3.77-.12-4.33.12-8.67-.08-13-.17-3.88,1.74-6.5,5.22-6.57,3.75-.08,5.88,2.76,5.95,6.63.09,5.29,0,10.59,0,16.7h8.69c3.36,0,6.06,1.15,6.53,4.76.52,3.89-2,5.92-5.46,6.49a83,83,0,0,1-9.51.53v22.77h9.13c3.48,0,5.86,2.15,5.34,5.13a8.84,8.84,0,0,1-5,5.68c-2.78,1-6.16.24-9.72.24,0,6.28.15,12.07,0,17.85-.16,5-4.26,8.37-7.67,6.24A8.52,8.52,0,0,1,386,346.7c-.45-5.77-.16-11.6-.16-17.76H354c0,5.64-.07,11.26,0,16.87.06,4-1.2,7.29-5.59,7.28s-5.8-3.09-5.7-7.2c.13-5.62,0-11.24,0-17.28-9,0-17.61,0-26.22,0-16.19,0-17.14,1.76-16.78-17,.11-5.47,0-10.95,0-17h-9.94c-8,0-16,.17-24-.11-6.7-.23-8.61-2.32-8.74-8.88-.12-6.33-.13-12.66.08-19,.12-3.4,1.36-6.18,5.59-6.24s5.73,2.45,5.89,5.94c.24,5.27.06,10.55.06,16.55,9.79,0,19.21.08,28.63-.15.83,0,2.23-2.12,2.31-3.33.29-4.14.06-8.32.12-12.48.05-3.88,1.47-7.35,5.74-7.34s5.78,3.1,5.57,7.27a81.08,81.08,0,0,0,.12,12.47c.14,1.3,2.13,3.38,3.33,3.43,8.31.3,16.65.12,25,.18,2.7,0,3.37-1.26,3.29-3.74-.16-4.32-.06-8.66,0-13,0-3.65,1.86-6.52,5.41-6.58,3.72-.06,5.89,2.52,5.82,6.6C353.9,271.48,354,276.78,354,282.87Zm.21,34c9.88,0,19.18.09,28.47-.12,1.09,0,3-1.68,3.08-2.64.28-6.42.15-12.86.15-19.47h-31.7Zm-12-22.43c-9.42,0-18.52.09-27.62-.06-2.68,0-3.53,1-3.49,3.48.07,5.14-.17,10.3.16,15.42.07,1.2,1.85,3.27,2.9,3.3,9.23.26,18.48.15,28,.15Z" transform="translate(-185.98 -195.6)"/><path d="M248.48,343.58c5.79,0,11.23,0,16.66,0,4,0,6.89,1.35,7.13,5.8s-3,5.73-6.49,5.85c-7.31.25-14.64.25-21.95,0-4.48-.12-6.86-2.57-6.81-7.33.11-10.48,0-21,0-31.44,0-3.46,1-6.44,5-6.84,4.28-.44,6.21,2.64,6.34,6.12C248.7,324.87,248.48,334,248.48,343.58Z" transform="translate(-185.98 -195.6)"/></svg>