<svg xmlns="http://www.w3.org/2000/svg" width="153.442" height="153.442" viewBox="0 0 153.442 153.442">
  <g id="cambia_tu_contraseña" data-name="cambia tu contraseña" transform="translate(-97.287 -211.779)">
    <path id="Trazado_4440" data-name="Trazado 4440" d="M76.721,0A76.721,76.721,0,1,1,0,76.721,76.721,76.721,0,0,1,76.721,0Z" transform="translate(97.287 211.779)" fill="#a3ddcf"/>
    <g id="Grupo_5240" data-name="Grupo 5240" transform="translate(14.797 202.725)">
      <g id="Grupo_5239" data-name="Grupo 5239" transform="translate(135.189 90.246)">
        <g id="Grupo_5238" data-name="Grupo 5238" transform="translate(0 33.286)">
          <g id="Grupo_5237" data-name="Grupo 5237">
            <rect id="Rectángulo_3698" data-name="Rectángulo 3698" width="51.94" height="7.791" fill="#fff"/>
            <g id="Grupo_5235" data-name="Grupo 5235" transform="translate(4.484 2.741)">
              <circle id="Elipse_697" data-name="Elipse 697" cx="1.082" cy="1.082" r="1.082" fill="#4a0e36"/>
              <circle id="Elipse_698" data-name="Elipse 698" cx="1.082" cy="1.082" r="1.082" transform="translate(3.968)" fill="#4a0e36"/>
              <circle id="Elipse_699" data-name="Elipse 699" cx="1.082" cy="1.082" r="1.082" transform="translate(7.935)" fill="#4a0e36"/>
              <circle id="Elipse_700" data-name="Elipse 700" cx="1.082" cy="1.082" r="1.082" transform="translate(11.903)" fill="#4a0e36"/>
              <circle id="Elipse_701" data-name="Elipse 701" cx="1.082" cy="1.082" r="1.082" transform="translate(15.871)" fill="#4a0e36"/>
              <circle id="Elipse_702" data-name="Elipse 702" cx="1.082" cy="1.082" r="1.082" transform="translate(19.838)" fill="#4a0e36"/>
            </g>
          </g>
        </g>
      </g>
    </g>
    <g id="Grupo_5242" data-name="Grupo 5242" transform="translate(-90.688 37.779)">
      <g id="Grupo_4016" data-name="Grupo 4016" transform="translate(-9960 403)">
        <rect id="Rectángulo_3113" data-name="Rectángulo 3113" width="89" height="57" rx="4" transform="translate(10180 -184)" fill="#fff"/>
        <path id="Trazado_4443" data-name="Trazado 4443" d="M43.244,0l42.5,28.1a3.213,3.213,0,0,1-1.879.539c-1.241.021-79.087-.04-80.663,0A4.206,4.206,0,0,1,.8,28.094Z" transform="translate(10267.816 -155.388) rotate(180)" fill="#67c4e0"/>
        <path id="Trazado_4444" data-name="Trazado 4444" d="M43.441,2.765,47.35,0,85.516,28a5.847,5.847,0,0,1-2.652.428c-1.446-.08-78.145.016-79.747-.008a4.861,4.861,0,0,1-2.44-.574L39.283,0Z" transform="translate(10181.271 -155.387)" fill="#c0e8f4"/>
        <path id="Trazado_4441" data-name="Trazado 4441" d="M28.9,0,54.4,38.214a3.533,3.533,0,0,1-1.756.612c-1.114.1-47.458.082-49.225.043A4.34,4.34,0,0,1,.624,37.826Z" transform="translate(10230.189 -127.749) rotate(-90)" fill="#c0e8f4"/>
        <path id="Trazado_4442" data-name="Trazado 4442" d="M28.689,39.462,54.452.756A3.03,3.03,0,0,0,52.681,0c-.929-.033-41.531-.036-48.3-.036C2.121-.16,1.409.3,1.409.3Z" transform="translate(10180.033 -127.943) rotate(-90)" fill="#c0e8f4"/>
      </g>
    </g>
    <text id="_" data-name="@" transform="translate(163.287 276.779)" fill="#fff" font-size="24" font-family="OpenSans-Bold, Open Sans" font-weight="700"><tspan x="0" y="0">@</tspan></text>
  </g>
</svg>