<svg id="Capa_1" data-name="Capa 1" fill="#fff" xmlns="http://www.w3.org/2000/svg" viewBox="0 0 251.9 248.8"><path d="M384.31,417.56c0,4.07.11,7.89,0,11.71-.18,5-2.67,7.62-7.59,8.15a59.74,59.74,0,0,1-6,.2H208.16c-1.67,0-3.34,0-5-.08-6.55-.45-8.61-2.53-8.61-9q0-115.26,0-230.5c0-6.29,2.81-9.16,9.14-9.16q85.53-.06,171.05,0c6.72,0,9.55,3,9.56,10,.06,25,.12,50-.07,75,0,3.79,1.14,5.24,4.78,5.86,24.47,4.18,41.56,18.41,51.47,40.55,16.95,37.89-3.73,81.95-43.52,94.2C393,415.64,388.91,416.43,384.31,417.56Zm-77.58-74.48H229a35.51,35.51,0,0,1-4.5-.1c-3.94-.5-6.32-3.48-6.08-6.76.17-2.34,2.78-5,5-6.53,1.52-1.07,4.18-.68,6.33-.69,22.85,0,45.7-.46,68.52.2,8.46.25,12.35-2,15.92-10.14,9.55-21.81,26.91-35,50.51-39.36,3.51-.66,4.47-2.26,4.45-5.7-.14-22.34-.06-44.67-.08-67a26.52,26.52,0,0,0-.32-2.87H208.68V423H368.83v-5.1c-7.18-2.35-13.92-4.67-20.73-6.75a32.31,32.31,0,0,0-9.08-1.84c-36.18-.12-72.36-.07-108.54-.09A30.24,30.24,0,0,1,225,409c-4.11-.79-7.11-3.81-6.58-7.52.36-2.57,3.67-5.05,6.19-6.82,1.4-1,3.88-.53,5.87-.54q43.77,0,87.53,0h6.16c-3.26-5.15-6.28-9.12-8.42-13.52-1.71-3.52-3.77-4.68-7.66-4.66-26.35.18-52.69.1-79,.08a23.51,23.51,0,0,1-5.45-.34c-3.6-.88-6.61-3.4-5.56-7,.78-2.65,3.83-4.86,6.29-6.7,1.09-.81,3.23-.25,4.9-.25q37,0,74,0h5.14C307.82,355.18,307.3,349.42,306.73,343.08Zm70.21-49.57c-27-2.2-54.89,20.24-55.19,53.94-.27,30.29,22.25,55.18,54.74,55.5,31.2.3,55.44-23.76,55.53-55.27C432.11,314.59,402.74,290.83,376.94,293.51Z" transform="translate(-194.53 -188.83)"/><path d="M256.75,264.19c-10.16,0-20.32,0-30.48,0-6.08,0-8.5-2.39-8.56-8.43q-.14-15.24,0-30.47c0-6.19,2.62-8.69,8.94-8.71q30.48-.08,61,0c6.45,0,8.63,2.26,8.67,8.78q.11,15.24,0,30.47c0,6.14-2.29,8.31-8.55,8.35C277.41,264.23,267.08,264.19,256.75,264.19Zm-24.69-13.93h49.83c0-5.85.12-11.45-.14-17,0-.82-1.94-2.2-3-2.21q-21.7-.22-43.42,0c-1.11,0-3.09,1.61-3.15,2.55C231.9,239,232.06,244.45,232.06,250.26Z" transform="translate(-194.53 -188.83)"/><path d="M378,302.82c3.46.62,6.43,2.86,6.12,7.13s2,6.22,4.84,8.76a33.64,33.64,0,0,1,7.67,10.52c1.7,3.58.64,7.26-3.66,9-4.11,1.63-7.61.23-9.7-4.36-1.49-3.28-3.52-5.5-7.17-4.66-1.81.41-4.29,1.86-4.69,3.33s1.25,4.11,2.72,4.89c4.37,2.32,9.13,3.9,13.69,5.89,7.66,3.37,11.7,9.69,11.67,17.66s-4.73,13.86-11.86,17.79a7.42,7.42,0,0,0-3.24,4.58c-.89,5-3.17,7.69-7.48,7.78-4.83.09-7.13-3.13-7.52-7.11-.35-3.61-2.2-5.13-4.63-7.37a44.17,44.17,0,0,1-9-12.14c-2.12-4.11.39-8.81,4.36-10.18,3.7-1.27,7.8.84,8.89,5.63,1.41,6.23,9.5,7.91,13.12,4.92s3.51-7.16-.78-9.11-8.72-3.23-13-5.05c-6.32-2.71-10.87-7.1-11.68-14.29-.94-8.43,2.05-15.14,9.74-19.06,2.92-1.49,3.51-3.41,3.57-6.32C370.16,305.78,373.1,302.69,378,302.82Z" transform="translate(-194.53 -188.83)"/></svg>