<svg id="Capa_1" data-name="Capa 1" fill="#fff" xmlns="http://www.w3.org/2000/svg" viewBox="0 0 251.32 252.06"><path d="M208.92,260V253.9q0-39.24,0-78.49c0-8.94,2.62-11.63,11.61-11.64q85,0,170,0c8.59,0,11.34,2.83,11.35,11.46q0,46.25,0,92.49v5.81c5.9,0,11.65,0,17.39,0,8.69,0,11.83,3.07,11.83,11.67q0,59.74,0,119.49c0,8.3-2.83,11.11-11.12,11.11H191c-8.42,0-11.19-2.72-11.2-11q0-66.75,0-133.49c0-8.21,2.61-10.8,10.72-10.85,5.33,0,10.66,0,16-.07A19.33,19.33,0,0,0,208.92,260ZM415.64,288.8h-6.32c-32.83,0-65.66-.42-98.47.24-10.56.21-18.89-2-25.13-10.62-2.14-2.95-5.06-3.65-8.71-3.63-25.32.16-50.65.08-76,.08h-5.57V401H415.64ZM386.33,179.34H224.65v80.25h5.76c14.32,0,28.67.6,43-.2,10.53-.58,18.93,1.92,25.19,10.58,2.14,3,5.07,3.66,8.7,3.64,24.48-.15,48.95-.08,73.43-.08h5.65Z" transform="translate(-179.81 -163.75)"/><path d="M298.55,336.72c0-5.05,0-9.19,0-13.32,0-6.69,2.34-9.88,7.08-9.85,4.54,0,6.72,3.12,6.75,9.59,0,4.29,0,8.58,0,13.6,5.17,0,9.78-.14,14.38,0,3.81.14,7.37,1.15,8.52,5.46,1.41,5.27-1.74,9.31-7.7,9.63-4.8.26-9.62.05-15.21.05,0,5.3.05,10.22,0,15.14-.08,5.45-2.21,8-6.69,8.05s-7-2.67-7.11-8.23c-.07-4.78,0-9.57,0-14.91-4.87,0-9.15,0-13.43,0-5.94-.08-9.84-3.08-9.95-7.56-.11-4.69,3.47-7.57,9.68-7.66C289.17,336.67,293.47,336.72,298.55,336.72Z" transform="translate(-179.81 -163.75)"/><path d="M273.18,247q-14.73,0-29.46,0a23,23,0,0,1-4.48-.23c-3.56-.73-6.84-2.9-6.37-6.48.35-2.75,3-5.4,5.19-7.6.94-.95,3.15-.88,4.78-.88q29.46-.09,58.92,0c6.06,0,9.82,2.49,10.51,6.45.87,5-2.08,8.61-7.63,8.68-10.48.14-21,0-31.46,0Z" transform="translate(-179.81 -163.75)"/><path d="M273.52,213.05c-9.66,0-19.32.1-29-.06-2.43,0-5.32-.25-7.12-1.57s-3.71-4.21-3.65-6.36,2.3-4.37,4-6.2c.75-.82,2.46-1,3.74-1.05,21.15-.07,42.3-.18,63.44.11a9.86,9.86,0,0,1,6.88,3.92c3.45,5.2-.67,11-7.84,11.15C293.84,213.2,283.68,213,273.52,213.05Z" transform="translate(-179.81 -163.75)"/><path d="M340.24,222.88c5-9.57,11.22-17.56,20-23.07,2.42-1.52,6-2.91,8.5-2.25,6.25,1.63,7.49,8.77,2.05,12.2-11.78,7.42-17.47,18.64-21.93,31.13-.9,2.51-4.51,5.17-7.2,5.57-2,.3-5-2.52-6.84-4.56-2.66-2.88-4.38-6.63-7.11-9.42-3-3.08-4-6.11-1.73-9.77,2.15-3.49,6.11-4.21,10.12-2.12C337.26,221.2,338.39,221.85,340.24,222.88Z" transform="translate(-179.81 -163.75)"/></svg>