<svg xmlns="http://www.w3.org/2000/svg" xmlns:xlink="http://www.w3.org/1999/xlink" width="107" height="103.34" viewBox="0 0 107 103.34">
  <defs>
    <clipPath id="clip-path">
      <rect id="Rectángulo_6433" data-name="Rectángulo 6433" width="107" height="103.34" transform="translate(-16 -22)" fill="none"/>
    </clipPath>
  </defs>
  <g id="Tomografía" transform="translate(56 48.17)">
    <g id="Grupo_9542" data-name="Grupo 9542" transform="translate(-40 -26.17)" clip-path="url(#clip-path)">
      <path id="Trazado_28863" data-name="Trazado 28863" d="M23.2,27.749a5.5,5.5,0,1,0-5.5-5.5h0a5.5,5.5,0,0,0,5.5,5.5m0-8.338a2.836,2.836,0,1,1-2.836,2.836A2.836,2.836,0,0,1,23.2,19.411m13.409,2.063c-.344.086-8.423,1.461-8.423,6.7H20.016a1.461,1.461,0,1,0,0,2.922h45.3a1.461,1.461,0,0,0,1.2-2.407,1.461,1.461,0,0,0,.258-.86c-.344-4.727-4.813-6.361-7.048-6.618H36.606ZM59.383,24.4c.516.086,4.126.6,4.3,3.868a.258.258,0,0,0,0,.086H31.191c0-2.235,4.212-3.524,5.845-3.782Zm9.369,9.369a1.461,1.461,0,0,1-1.461,1.461h-26.3a23.723,23.723,0,0,1-18.48,9.713,22.52,22.52,0,1,1,20.715-31.2l-2.407,1.031A19.855,19.855,0,1,0,22.509,42.275a21.145,21.145,0,0,0,15.214-7.048H31.362a15.558,15.558,0,1,1,5.5-18.91l-2.493,1.117a12.979,12.979,0,1,0-6.876,16.933l.945-.43a1.289,1.289,0,0,1,0-.172A1.461,1.461,0,0,1,29.9,32.3h37.39A1.461,1.461,0,0,1,68.752,33.765Z" transform="translate(4.665 4.361)" fill="#fff"/>
      <g id="Elipse_871" data-name="Elipse 871" transform="translate(-9.998 -19)" fill="none" stroke="#fff" stroke-width="5">
        <ellipse cx="49" cy="47.5" rx="49" ry="47.5" stroke="none"/>
        <ellipse cx="49" cy="47.5" rx="46.5" ry="45" fill="none"/>
      </g>
    </g>
  </g>
</svg>