<svg xmlns="http://www.w3.org/2000/svg" viewBox="0 0 189.84 189.84"><defs><style>.cls-1{fill:#fff;}</style></defs><g id="Capa_2" data-name="Capa 2"><g id="Capa_1-2" data-name="Capa 1"><g id="Page-1"><g id="_002---Virus" data-name="002---Virus"><path id="Shape" class="cls-1" d="M88.77,92.86A10.26,10.26,0,1,0,78.51,82.61,10.25,10.25,0,0,0,88.77,92.86Zm0-16.41a6.16,6.16,0,1,1-6.16,6.16A6.16,6.16,0,0,1,88.77,76.45Z"/><path id="Shape-2" data-name="Shape" class="cls-1" d="M111.33,94.91a6.15,6.15,0,1,0-6.15-6.15A6.15,6.15,0,0,0,111.33,94.91Zm0-8.2a2,2,0,1,1-2,2.05A2.05,2.05,0,0,1,111.33,86.71Z"/><path id="Shape-3" data-name="Shape" class="cls-1" d="M72.35,105.17A6.16,6.16,0,1,0,66.2,99,6.15,6.15,0,0,0,72.35,105.17Zm0-8.2a2,2,0,1,1-2,2A2,2,0,0,1,72.35,97Z"/><path id="Shape-4" data-name="Shape" class="cls-1" d="M84.66,109.27A12.31,12.31,0,1,0,97,97,12.31,12.31,0,0,0,84.66,109.27Zm20.52,0a8.21,8.21,0,1,1-8.21-8.2A8.21,8.21,0,0,1,105.18,109.27Z"/><path id="Shape-5" data-name="Shape" class="cls-1" d="M41.58,103.12a8.09,8.09,0,0,0,4.31-1.23A3.66,3.66,0,0,1,48,101.2c2.63.14,6.53.43,10.77,1a37.5,37.5,0,0,0,1.17,4.43c-3.54,2.77-6.82,5-8.94,6.36a3.07,3.07,0,0,1-1.78.36,8.32,8.32,0,0,0-5.85,2,8.2,8.2,0,0,0,9.46,13.31A8.08,8.08,0,0,0,56,125.45a3.6,3.6,0,0,1,1.43-1.61c2-1,7.06-3.24,9.9-4.45a35.58,35.58,0,0,0,3.21,3.17c-1.76,4.36-3.6,8.08-4.6,10a2.89,2.89,0,0,1-1.35,1.19,8.21,8.21,0,1,0,11.9,7.09,3.7,3.7,0,0,1,.44-2.14c1.44-2.22,3.65-5.46,6.29-8.84a34.84,34.84,0,0,0,4.37,1.19c.28,2.52,1,8.62,1.07,11a2.87,2.87,0,0,1-.56,1.68,8.23,8.23,0,0,0,5.48,12.63,7.83,7.83,0,0,0,1.37.1,8.16,8.16,0,0,0,8.2-8.2,8.06,8.06,0,0,0-1.26-4.37,3.54,3.54,0,0,1-.65-2c.14-2.63.43-6.53,1-10.77a37,37,0,0,0,4.42-1.21c2.91,3.7,5.21,7.15,6.38,9a2.92,2.92,0,0,1,.35,1.76,8.24,8.24,0,0,0,8.24,8.67,8.12,8.12,0,0,0,2.81-.5A8.22,8.22,0,0,0,128.7,137a8.12,8.12,0,0,0-3.22-3.12,3.7,3.7,0,0,1-1.64-1.47c-1.19-2.35-2.9-5.88-4.51-9.86a35.8,35.8,0,0,0,3.21-3.19c4.93,2.14,8.57,3.8,10,4.56a2.84,2.84,0,0,1,1.2,1.36,8.22,8.22,0,1,0,11.43-10.82,8,8,0,0,0-4.44-1.08,3.46,3.46,0,0,1-2-.44c-3.15-2-6.12-4.15-8.81-6.3a35.32,35.32,0,0,0,1.16-4.41c4.65-.66,8.78-.93,11-1a2.91,2.91,0,0,1,1.7.58,8.21,8.21,0,1,0,4.5-15.07,8.08,8.08,0,0,0-4.3,1.23,3.81,3.81,0,0,1-2.09.69c-2.63-.14-6.53-.43-10.77-1a35.66,35.66,0,0,0-1.17-4.43c3.54-2.77,6.82-5,8.94-6.36a3,3,0,0,1,1.78-.36,8.25,8.25,0,0,0,5.84-2,8.21,8.21,0,1,0-12.62-10.07A3.6,3.6,0,0,1,132.43,66c-2,1-7.06,3.24-9.9,4.44a38.18,38.18,0,0,0-3.2-3.16c1.75-4.36,3.6-8.08,4.6-10a2.89,2.89,0,0,1,1.35-1.19,8.2,8.2,0,1,0-10.8-11.43,8,8,0,0,0-1.1,4.33,3.65,3.65,0,0,1-.45,2.15c-1.43,2.22-3.64,5.46-6.28,8.84a36.68,36.68,0,0,0-4.37-1.2c-.29-2.52-1-8.64-1.07-11a2.89,2.89,0,0,1,.55-1.65A8.21,8.21,0,1,0,88,45.94a3.58,3.58,0,0,1,.66,2c-.12,2.25-.72,7.73-1.1,10.79a34.55,34.55,0,0,0-4.35,1.19c-2.9-3.69-5.2-7.15-6.38-9a2.91,2.91,0,0,1-.34-1.76,8.21,8.21,0,1,0-15.31,3.64A8.06,8.06,0,0,0,64.37,56,3.7,3.7,0,0,1,66,57.42c1.2,2.34,2.9,5.88,4.51,9.86a38.65,38.65,0,0,0-3.21,3.19c-2.32-1-7.93-3.47-10-4.56a2.87,2.87,0,0,1-1.19-1.36,8.23,8.23,0,1,0-7,11.9,3.46,3.46,0,0,1,2,.44,105,105,0,0,1,8.8,6.3,37.1,37.1,0,0,0-1.15,4.41c-4.65.66-8.78.92-11,1a2.91,2.91,0,0,1-1.7-.58,8.21,8.21,0,1,0-4.51,15.07Zm31.88,33.35A7.72,7.72,0,0,0,72.35,141a3.9,3.9,0,0,1-.55,2.16,4.1,4.1,0,1,1-5.39-5.73,6.79,6.79,0,0,0,3.14-3c1.14-2.2,2.73-5.45,4.31-9.23a36.54,36.54,0,0,0,5.36,3.09C76.81,131.45,74.82,134.4,73.46,136.47Zm46.72-2.19a7.61,7.61,0,0,0,3.36,3.21,4.1,4.1,0,0,1,1.13,6.3,4.1,4.1,0,0,1-7.19-2.93,6.81,6.81,0,0,0-1-4.2c-1.1-1.73-3.19-4.87-5.84-8.33a37.7,37.7,0,0,0,5.35-3.12C117.51,128.87,119.06,132.08,120.18,134.28Zm21.46-41.56a7.59,7.59,0,0,0,4.46-1.3,4.21,4.21,0,0,1,5.29.84,4.1,4.1,0,0,1-5.4,6.08,7,7,0,0,0-4.15-1.23c-2,.09-5.8.33-10.13.9.08-1,.13-2.06.13-3.1s0-2.07-.13-3.09c3.91.51,7.47.77,9.93.9ZM116.38,53.35a7.68,7.68,0,0,0,1.1-4.51,4.07,4.07,0,0,1,.55-2.16,4.1,4.1,0,1,1,5.4,5.72,6.86,6.86,0,0,0-3.14,3c-1.14,2.2-2.73,5.45-4.3,9.23a37.52,37.52,0,0,0-5.36-3.1c2.39-3.13,4.39-6.08,5.75-8.16Zm-46.72,2.2a7.61,7.61,0,0,0-3.36-3.21,4.07,4.07,0,0,1-1.6-1.56A4.1,4.1,0,1,1,72.35,49a6.89,6.89,0,0,0,1,4.2c1.33,2.09,3.35,5.08,5.85,8.34a37.13,37.13,0,0,0-5.36,3.1c-1.52-3.66-3.07-6.87-4.19-9.07ZM53.33,73.45a7.29,7.29,0,0,0-4.43-1.1,4,4,0,0,1-2.22-.54,4.1,4.1,0,1,1,5.73-5.41,6.81,6.81,0,0,0,3,3.16c2.12,1.1,7.35,3.4,10.28,4.68a4.1,4.1,0,0,0,4.7-1.08,32.73,32.73,0,0,1,18-10.38,4.11,4.11,0,0,0,3.3-3.56c.35-3.11,1-8.69,1.09-11a7.55,7.55,0,0,0-1.3-4.44,4,4,0,0,1-.61-2.16,4.1,4.1,0,1,1,7.52,2.29A6.79,6.79,0,0,0,97.11,48c.1,2.37.73,8.07,1.09,11.26a4.09,4.09,0,0,0,3.29,3.54,32.73,32.73,0,0,1,18,10.38,4.11,4.11,0,0,0,4.72,1.07c2.87-1.25,8-3.51,10.12-4.58a7.63,7.63,0,0,0,3.18-3.33,4,4,0,0,1,1.58-1.62,4.1,4.1,0,0,1,4.77,6.63,4.23,4.23,0,0,1-3,1,6.87,6.87,0,0,0-4.22,1c-2.21,1.42-5.6,3.71-9.26,6.58a4.1,4.1,0,0,0-1.33,4.56,33,33,0,0,1,0,20.84,4.12,4.12,0,0,0,1.33,4.56c2.81,2.2,5.88,4.39,9.13,6.49a7.45,7.45,0,0,0,4.43,1.1,4,4,0,0,1,2.22.54,4.1,4.1,0,1,1-5.73,5.41,6.81,6.81,0,0,0-3-3.16c-2.09-1.09-7.33-3.4-10.27-4.67a4.11,4.11,0,0,0-4.72,1.07,32.58,32.58,0,0,1-19.37,10.63,2.07,2.07,0,0,0-1.71,1.77c-.77,4.94-1.11,9.57-1.27,12.58a7.42,7.42,0,0,0,1.29,4.43,4,4,0,0,1,.62,2.17A4.1,4.1,0,1,1,91.51,146a6.89,6.89,0,0,0,1.23-4.12c-.11-2.39-.73-8.07-1.09-11.24a4.1,4.1,0,0,0-3.29-3.55,32.73,32.73,0,0,1-18-10.38,4.16,4.16,0,0,0-3.1-1.41,4.09,4.09,0,0,0-1.62.34c-2.87,1.25-8,3.51-10.12,4.59a7.61,7.61,0,0,0-3.18,3.32,4,4,0,0,1-1.57,1.62A4.11,4.11,0,0,1,46,118.5a4.24,4.24,0,0,1,2.95-1,6.94,6.94,0,0,0,4.22-1c2.2-1.42,5.6-3.71,9.27-6.58a4.12,4.12,0,0,0,1.32-4.56,33,33,0,0,1,0-20.84,4.11,4.11,0,0,0-1.32-4.56c-2.8-2.21-5.87-4.39-9.13-6.49ZM37.53,94.2a4.13,4.13,0,0,1,6.32-2.71A6.86,6.86,0,0,0,48,92.72c2.46-.11,6.07-.36,10.13-.89-.09,1-.13,2-.13,3.08s0,2.07.13,3.1c-3.91-.51-7.47-.77-9.93-.9a7.68,7.68,0,0,0-4.46,1.3,4.21,4.21,0,0,1-5.28-.83,4.09,4.09,0,0,1-.91-3.38Z"/><path id="Shape-6" data-name="Shape" class="cls-1" d="M0,94.92A94.92,94.92,0,1,0,94.92,0,94.92,94.92,0,0,0,0,94.92Zm180.1,0A85.19,85.19,0,1,1,94.92,9.74,85.18,85.18,0,0,1,180.1,94.93Z"/></g></g></g></g></svg>