<svg id="Capa_1" data-name="Capa 1" fill="#fff" xmlns="http://www.w3.org/2000/svg" viewBox="0 0 252.12 100.9"><path d="M184.19,319.18a65.17,65.17,0,0,1-7-.05c-3.9-.42-6.5-3.3-5.92-6.66.42-2.45,3.66-4.42,5.65-6.59.08-.09.33-.08.49-.05,10,2.17,16.21-3.48,23.13-9.66,10.56-9.46,23.48-13.47,37.91-10.8a30.33,30.33,0,0,0,5.48.3h106c7.58,0,15.25-.65,22.74.23,11.66,1.36,21.39,7.12,28.85,16.21,2.25,2.75,4.46,4.1,8,3.67a45.34,45.34,0,0,1,6.49,0c5.23.14,7.37,2.13,7.31,6.7s-2.34,6.54-7.39,6.76c-1.3.06-2.61.17-3.87.25.7,5.33,1.9,10.41,1.94,15.5.24,28.93-24,52.19-52.76,50.39-22.39-1.4-41.43-17.43-45.51-39.5-1.05-5.66-.77-11.55-1.42-17.3-.21-1.9-.9-4.27-2.24-5.44a21.63,21.63,0,0,0-27.61-.64,9.43,9.43,0,0,0-3,6.64c.31,10.31-.53,20.19-5.8,29.44-8.07,14.17-19.8,22.61-35.92,25.83-27,5.39-54.36-16.34-57-41.72a72,72,0,0,1-.51-11.82C182.43,327.09,183.44,323.36,184.19,319.18Zm12,15.16c-.82,18.33,13.56,36,35.45,36,20.14-.08,35.13-13.71,35.86-35.77.61-18.58-15.66-34.54-33-35.59C210.36,297.46,195.06,317.48,196.18,334.34Zm203,.33c1.92-19.74-17.48-36.68-36.3-35.83-15.78.72-34.81,12.74-34.54,35.9.25,21.14,15.34,35.6,35.9,35.59C385.2,370.33,400.57,353,399.13,334.67Zm-70.89-35.18H267.5L276,311.18c14.73-9.67,29.24-9.76,43.7-.08Z" transform="translate(-171.19 -284.56)"/></svg>