<svg xmlns="http://www.w3.org/2000/svg" width="153" height="153" viewBox="0 0 153 153">
  <g id="reestablecer_contraseña" data-name="reestablecer contraseña" transform="translate(-97.287 -211.779)">
    <path id="Trazado_4440" data-name="Trazado 4440" d="M76.5,0A76.5,76.5,0,1,1,0,76.5,76.5,76.5,0,0,1,76.5,0Z" transform="translate(97.287 211.779)" fill="#a3ddcf"/>
    <g id="Grupo_5234" data-name="Grupo 5234" transform="translate(-2.902 161.533)">
      <g id="Grupo_5239" data-name="Grupo 5239" transform="translate(135.189 83.246)">
        <path id="Trazado_4561" data-name="Trazado 4561" d="M254.621,155.681h-2.259c-.6-8.287-5.043-14.529-10.606-14.529s-10.006,6.242-10.607,14.529h-2.26A2.9,2.9,0,0,0,226,158.569V180.1a2.9,2.9,0,0,0,2.888,2.889h25.732a2.9,2.9,0,0,0,2.888-2.889V158.569A2.9,2.9,0,0,0,254.621,155.681ZM241.756,145.7c2.624,0,5.518,4.01,6.041,9.978H235.714C236.237,149.714,239.132,145.7,241.756,145.7Zm2.525,30.758-5.049.144.6-7.545a4.036,4.036,0,0,1-1.492-3.2,3.441,3.441,0,1,1,6.827,0,3.977,3.977,0,0,1-1.787,3.408Z" transform="translate(-201.309 -141.152)" fill="#67c4e0" stroke="#fff" stroke-width="2"/>
        <g id="Grupo_5238" data-name="Grupo 5238" transform="translate(0 52.746)">
          <g id="Grupo_5237" data-name="Grupo 5237">
            <rect id="Rectángulo_3698" data-name="Rectángulo 3698" width="82.306" height="12.346" fill="#fff"/>
            <rect id="Rectángulo_3699" data-name="Rectángulo 3699" width="82.306" height="12.346" transform="translate(0 21.262)" fill="#fff"/>
            <g id="Grupo_5235" data-name="Grupo 5235" transform="translate(7.106 4.344)">
              <circle id="Elipse_697" data-name="Elipse 697" cx="1.715" cy="1.715" r="1.715" fill="#4a0e36"/>
              <circle id="Elipse_698" data-name="Elipse 698" cx="1.715" cy="1.715" r="1.715" transform="translate(6.287)" fill="#4a0e36"/>
              <circle id="Elipse_699" data-name="Elipse 699" cx="1.715" cy="1.715" r="1.715" transform="translate(12.575)" fill="#4a0e36"/>
              <circle id="Elipse_700" data-name="Elipse 700" cx="1.715" cy="1.715" r="1.715" transform="translate(18.862)" fill="#4a0e36"/>
              <circle id="Elipse_701" data-name="Elipse 701" cx="1.715" cy="1.715" r="1.715" transform="translate(25.149)" fill="#4a0e36"/>
              <circle id="Elipse_702" data-name="Elipse 702" cx="1.715" cy="1.715" r="1.715" transform="translate(31.436)" fill="#4a0e36"/>
            </g>
            <g id="Grupo_5236" data-name="Grupo 5236" transform="translate(7.106 25.721)">
              <circle id="Elipse_703" data-name="Elipse 703" cx="1.715" cy="1.715" r="1.715" fill="#4a0e36"/>
              <circle id="Elipse_704" data-name="Elipse 704" cx="1.715" cy="1.715" r="1.715" transform="translate(6.287)" fill="#4a0e36"/>
              <circle id="Elipse_705" data-name="Elipse 705" cx="1.715" cy="1.715" r="1.715" transform="translate(12.575)" fill="#4a0e36"/>
              <circle id="Elipse_706" data-name="Elipse 706" cx="1.715" cy="1.715" r="1.715" transform="translate(18.862)" fill="#4a0e36"/>
              <circle id="Elipse_707" data-name="Elipse 707" cx="1.715" cy="1.715" r="1.715" transform="translate(25.149)" fill="#4a0e36"/>
              <circle id="Elipse_708" data-name="Elipse 708" cx="1.715" cy="1.715" r="1.715" transform="translate(31.436)" fill="#4a0e36"/>
            </g>
          </g>
        </g>
      </g>
    </g>
  </g>
</svg>