<svg id="Login_Contrase単a_visible" data-name="Login_Contrase単a visible" xmlns="http://www.w3.org/2000/svg" width="15" height="14.452" viewBox="0 0 15 14.452">
  <path id="Login_Contrase単a_visible-2" data-name="Login_Contrase単a visible" d="M25.138,18.829a.146.146,0,0,0,0-.03.212.212,0,0,0,0-.056.146.146,0,0,0,0-.03.5.5,0,0,0-.019-.058.026.026,0,0,0,0-.011,8.275,8.275,0,0,0-3.412-3.666l1.4-1.4a.3.3,0,1,0-.424-.424l-1.536,1.534a8.222,8.222,0,0,0-3.219-.789V11.85a.3.3,0,0,0-.6,0V13.9a8.222,8.222,0,0,0-3.219.789L12.57,13.152a.3.3,0,0,0-.424.424l1.4,1.4a8.275,8.275,0,0,0-3.4,3.666v.011a.2.2,0,0,0,0,.032.107.107,0,0,0,0,.026.147.147,0,0,0,0,.03.212.212,0,0,0,0,.056.146.146,0,0,0,0,.03.107.107,0,0,0,0,.026.2.2,0,0,0,0,.032V18.9a8.275,8.275,0,0,0,3.4,3.666l-1.4,1.4a.3.3,0,1,0,.424.424l1.536-1.534a8.222,8.222,0,0,0,3.219.8V25.7a.3.3,0,1,0,.6,0V23.654a8.222,8.222,0,0,0,3.219-.789L22.682,24.4a.3.3,0,0,0,.424-.424l-1.4-1.41a8.275,8.275,0,0,0,3.4-3.666.026.026,0,0,0,0-.011.5.5,0,0,0,.019-.058Zm-7.512,4.22a7.7,7.7,0,0,1-6.874-4.278,7.661,7.661,0,0,1,13.747,0,7.7,7.7,0,0,1-6.874,4.278Zm2.524-5.375a.3.3,0,0,0-.291.173.984.984,0,1,1-1.315-1.315.3.3,0,0,0,.173-.291.3.3,0,0,0-.21-.267,2.926,2.926,0,1,0,1.91,1.91A.3.3,0,0,0,20.15,17.674ZM17.626,21.1a2.327,2.327,0,1,1,0-4.654h.1a1.585,1.585,0,0,0,2.225,2.227v.1A2.331,2.331,0,0,1,17.626,21.1Z" transform="translate(-10.14 -11.55)" fill="#616161"/>
</svg>