<svg id="visibility" xmlns="http://www.w3.org/2000/svg" width="15" height="11" viewBox="0 0 15 11">
  <g id="Grupo_22733" data-name="Grupo 22733" transform="translate(5.623 3.61)">
    <g id="Grupo_22732" data-name="Grupo 22732">
      <path id="Trazado_28718" data-name="Trazado 28718" d="M196.206,192.634a.315.315,0,0,0-.445.445,1.89,1.89,0,1,1-2.673,2.673.315.315,0,0,0-.445.445,2.52,2.52,0,1,0,3.563-3.563Z" transform="translate(-192.55 -192.542)" fill="#616161"/>
    </g>
  </g>
  <g id="Grupo_22735" data-name="Grupo 22735" transform="translate(4.989 3.018)">
    <g id="Grupo_22734" data-name="Grupo 22734">
      <path id="Trazado_28719" data-name="Trazado 28719" d="M173.627,170.7a2.495,2.495,0,0,0-2.959,2.477,2.467,2.467,0,0,0,.044.439.315.315,0,0,0,.309.26.28.28,0,0,0,.055-.005.315.315,0,0,0,.255-.365,1.827,1.827,0,0,1-.034-.329,1.867,1.867,0,0,1,2.22-1.857.315.315,0,1,0,.11-.62Z" transform="translate(-170.668 -170.659)" fill="#616161"/>
    </g>
  </g>
  <g id="Grupo_22737" data-name="Grupo 22737" transform="translate(3.82 1.8)">
    <g id="Grupo_22736" data-name="Grupo 22736">
      <path id="Trazado_28720" data-name="Trazado 28720" d="M144.54,139.788a15.3,15.3,0,0,0-4.126-3.291.315.315,0,1,0-.289.56,14.8,14.8,0,0,1,3.752,2.935c-.751.813-3.706,3.78-6.822,3.78a7.264,7.264,0,0,1-3.168-.759.315.315,0,0,0-.273.567,7.877,7.877,0,0,0,3.441.822c3.882,0,7.34-4.035,7.486-4.207A.315.315,0,0,0,144.54,139.788Z" transform="translate(-133.435 -136.461)" fill="#616161"/>
    </g>
  </g>
  <g id="Grupo_22739" data-name="Grupo 22739" transform="translate(0 1.26)">
    <g id="Grupo_22738" data-name="Grupo 22738">
      <path id="Trazado_28721" data-name="Trazado 28721" d="M9.627,107.022a6.5,6.5,0,0,0-2.067-.363c-3.882,0-7.34,4.035-7.486,4.207a.315.315,0,0,0-.018.384,11.7,11.7,0,0,0,2.89,2.74.313.313,0,0,0,.436-.089.314.314,0,0,0-.088-.436,11.521,11.521,0,0,1-2.572-2.378c.725-.788,3.7-3.8,6.838-3.8a5.9,5.9,0,0,1,1.866.329.311.311,0,0,0,.4-.2A.314.314,0,0,0,9.627,107.022Z" transform="translate(0 -106.659)" fill="#616161"/>
    </g>
  </g>
  <g id="Grupo_22741" data-name="Grupo 22741" transform="translate(1.89)">
    <g id="Grupo_22740" data-name="Grupo 22740">
      <path id="Trazado_28722" data-name="Trazado 28722" d="M75.124,64.1a.316.316,0,0,0-.441,0l-10.6,10.389a.3.3,0,0,0,0,.432.317.317,0,0,0,.441,0l10.6-10.389A.3.3,0,0,0,75.124,64.1Z" transform="translate(-63.996 -64.008)" fill="#616161"/>
    </g>
  </g>
</svg>