<?xml version="1.0" encoding="utf-8"?>
<!-- Generator: Adobe Illustrator 25.0.0, SVG Export Plug-In . SVG Version: 6.00 Build 0)  -->
<svg version="1.1" id="Capa_1" xmlns:serif="http://www.serif.com/"
	 xmlns="http://www.w3.org/2000/svg" xmlns:xlink="http://www.w3.org/1999/xlink" x="0px" y="0px" viewBox="0 0 967.5 967.5"
	 style="enable-background:new 0 0 967.5 967.5;" xml:space="preserve">
<style type="text/css">
	.st0{fill-rule:evenodd;clip-rule:evenodd;}
</style>
<path class="st0" d="M483.8,0C216.8,0,0,216.8,0,483.8s216.8,483.8,483.8,483.8s483.8-216.8,483.8-483.8S750.7,0,483.8,0z
	 M551.2,753.8c0,17.9-7.1,35.1-19.8,47.7c-12.7,12.6-29.8,19.8-47.7,19.8s-35.1-7.1-47.7-19.8c-12.6-12.7-19.8-29.8-19.8-47.7
	c0-85,0-207.5,0-292.5c0-17.9,7.1-35.1,19.8-47.7c12.7-12.6,29.8-19.8,47.7-19.8s35.1,7.1,47.7,19.8c12.6,12.7,19.8,29.8,19.8,47.7
	C551.2,546.2,551.2,668.8,551.2,753.8z M483.8,292.5c-43.5,0-78.8-35.3-78.8-78.8s35.3-78.8,78.8-78.8s78.8,35.3,78.8,78.8
	S527.2,292.5,483.8,292.5z"/>
</svg>
