<svg xmlns="http://www.w3.org/2000/svg" width="33.485" height="33.485" viewBox="0 0 33.485 33.485">
  <g id="Icon_ionic-ios-information-circle-outline" data-name="Icon ionic-ios-information-circle-outline" transform="translate(-3.375 -3.375)">
    <path id="Trazado_4562" data-name="Trazado 4562" d="M16.552,12.31a1.659,1.659,0,1,1,1.65,1.61A1.612,1.612,0,0,1,16.552,12.31Zm.113,2.874h3.075v11.6H16.664Z" transform="translate(1.908 1.062)" fill="#616161"/>
    <path id="Trazado_4563" data-name="Trazado 4563" d="M20.118,5.629A14.483,14.483,0,1,1,9.871,9.871,14.393,14.393,0,0,1,20.118,5.629m0-2.254A16.743,16.743,0,1,0,36.86,20.118,16.74,16.74,0,0,0,20.118,3.375Z" transform="translate(0 0)" fill="#616161"/>
  </g>
</svg>