<svg id="Capa_1" data-name="Capa 1" xmlns="http://www.w3.org/2000/svg" xmlns:xlink="http://www.w3.org/1999/xlink" viewBox="0 0 41.11 26.23"><defs><style>.cls-1{fill:none;}.cls-2{clip-path:url(#clip-path);}.cls-3{fill:#616161;}</style><clipPath id="clip-path"><rect class="cls-1" width="40.99" height="26.23"/></clipPath></defs><g id="movil-_lab_con_copy" data-name="movil- lab con copy"><g id="Laboratorio_clínico" data-name="Laboratorio clínico"><g class="cls-2"><g id="Grupo_9628" data-name="Grupo 9628"><path id="Trazado_37620" data-name="Trazado 37620" class="cls-3" d="M39.91,8.86a1.08,1.08,0,0,0-1.08,1.08h0v2.82H37.71V4.41c0-.36.1-1.29.1-1.54s.41-.46.61-.51a1,1,0,0,0,.67-.82,1.06,1.06,0,0,0,.1-.46,1.08,1.08,0,0,0-1-1.08H29a1.08,1.08,0,0,0-1.08,1.08h0a1,1,0,0,0,.36.76.85.85,0,0,0,.31.41l.66.46a2,2,0,0,1,.1,1.13,1.09,1.09,0,0,0-.05.26v8.6H25V4.4c0-.35.1-1.28.1-1.53s.41-.46.62-.51a1,1,0,0,0,.66-.82A1.09,1.09,0,0,0,25.86.1a1.07,1.07,0,0,0-.4-.1H16.24a1.08,1.08,0,0,0-1.08,1.08h0a1.06,1.06,0,0,0,.36.76.92.92,0,0,0,.31.41l.67.46a2.07,2.07,0,0,1,.1,1.13.75.75,0,0,0-.05.26v8.6h-4.3V4.4c0-.35.1-1.28.1-1.53s.41-.46.61-.51a1,1,0,0,0,.72-.82A1.09,1.09,0,0,0,13.16.1a1.18,1.18,0,0,0-.45-.1H3.54a1.07,1.07,0,0,0-1,1.11,1,1,0,0,0,.32.73.9.9,0,0,0,.3.41l.67.46a2,2,0,0,1,.1,1.13,1.09,1.09,0,0,0-.05.26v8.6H2.1V9.89a1.07,1.07,0,0,0-2.1,0V21.21A1.08,1.08,0,0,0,1.29,22a1.07,1.07,0,0,0,.81-.81V18.39H3.89V22a4.2,4.2,0,0,0,4.2,4.2,4.29,4.29,0,0,0,4.2-4.3V18.39h4.36V22a4.2,4.2,0,0,0,4.2,4.2,4.3,4.3,0,0,0,4.2-4.3V18.39H29.4V22a4.2,4.2,0,0,0,4.2,4.2h0a4.29,4.29,0,0,0,4.2-4.3V18.39H39v2.82a1.08,1.08,0,1,0,2.1.47.94.94,0,0,0,0-.47h0V9.89A1.07,1.07,0,0,0,40,8.81h0ZM36,2.15a1.9,1.9,0,0,0-.1.46c-.05.41-.1,1.54-.16,1.75V5.69H31.2V4.2a4,4,0,0,0-.15-2.05Zm-.26,10.61H31.2v-5h4.56ZM23.31,2.15a2.52,2.52,0,0,0-.1.46c-.05.41-.1,1.54-.15,1.75V9.22H18.5v-5a4,4,0,0,0-.16-2.05Zm-.25,10.56H18.5V11.32h4.56ZM10.6,2.15c0,.15-.07.31-.1.46-.05.41-.1,1.54-.15,1.75V7.07H5.79V4.2a4,4,0,0,0-.15-2.05Zm-.25,10.61H5.79V9.17h4.56ZM8,24.33A2.3,2.3,0,0,1,5.79,22V18.39h4.56v3.54A2.36,2.36,0,0,1,8,24.34H8m12.71,0A2.31,2.31,0,0,1,18.5,22V18.39h4.56v3.54a2.36,2.36,0,0,1-2.26,2.4m12.71,0A2.3,2.3,0,0,1,31.2,22h0V18.39h4.56v3.54a2.36,2.36,0,0,1-2.3,2.41h0m5.43-8.1H2.1V14.86H38.89Z"/></g></g></g></g></svg>