<svg id="Capa_1" data-name="Capa 1" xmlns="http://www.w3.org/2000/svg" xmlns:xlink="http://www.w3.org/1999/xlink" viewBox="0 0 50.93 19.97"><defs><style>.cls-1{fill:none;}.cls-2{clip-path:url(#clip-path);}.cls-3{fill:#616161;}</style><clipPath id="clip-path" transform="translate(0.19 0.02)"><rect class="cls-1" width="50.84" height="19.96"/></clipPath></defs><g id="movil-_lentes_con_copy" data-name="movil- lentes con copy"><g id="Óptica"><g class="cls-2"><g id="Óptica-2"><path id="Trazado_37619" data-name="Trazado 37619" class="cls-3" d="M49.81,4.23H47.05A9.8,9.8,0,0,0,37.31.13H13.59a9.8,9.8,0,0,0-9.74,4.1H1.09a1.28,1.28,0,0,0,0,2.56H2.63A9.93,9.93,0,1,0,21.8,8.21a4.74,4.74,0,0,1,6.6-.71l.71.71a9.18,9.18,0,0,0-.2,1.73,9.94,9.94,0,0,0,19.87-.12,10.16,10.16,0,0,0-.51-3.09h1.47a1.28,1.28,0,0,0,0-2.5ZM12,17.37a7.44,7.44,0,1,1,7.43-7.43h0A7.43,7.43,0,0,1,12,17.37M25.45,3.91a7.23,7.23,0,0,0-4.55,1.6,9.86,9.86,0,0,0-2.12-2.88h13.4a9.83,9.83,0,0,0-2.11,2.88,7.29,7.29,0,0,0-4.56-1.67ZM38.91,17.37a7.44,7.44,0,1,1,7.43-7.43,7.44,7.44,0,0,1-7.43,7.43h0" transform="translate(0.19 0.02)"/></g></g></g></g></svg>