<svg xmlns="http://www.w3.org/2000/svg" width="12.193" height="17.182" viewBox="0 0 12.193 17.182">
  <g id="lock-fill" transform="translate(-6.452 -1.29)">
    <path id="Trazado_10940" data-name="Trazado 10940" d="M6.452,20.282a2.217,2.217,0,0,1,2.217-2.217h7.76a2.217,2.217,0,0,1,2.217,2.217v5.543a2.217,2.217,0,0,1-2.217,2.217H8.669a2.217,2.217,0,0,1-2.217-2.217Z" transform="translate(0 -9.569)" fill="#9a9a9a"/>
    <path id="Trazado_10941" data-name="Trazado 10941" d="M11.613,5.17a3.88,3.88,0,1,1,7.76,0V8.5H18.264V5.17a2.771,2.771,0,1,0-5.543,0V8.5H11.613Z" transform="translate(-2.944)" fill="#9a9a9a" fill-rule="evenodd"/>
  </g>
</svg>