<svg id="Capa_1" data-name="Capa 1" xmlns="http://www.w3.org/2000/svg" viewBox="0 0 44.64 39.8"><defs><style>.cls-1{fill:#616161;}</style></defs><g id="movil-_pagos_en_linea_con_copy" data-name="movil- pagos en linea con copy"><g id="pago-con-tarjetas-de-credito"><g id="Grupo_25085" data-name="Grupo 25085"><path id="Trazado_44243" data-name="Trazado 44243" class="cls-1" d="M44.49,8.39,17.15,2.6A2.16,2.16,0,0,0,14.6,4.26l-.52,3.33,31.55,6.68.52-3.34A2.15,2.15,0,0,0,44.49,8.39Z" transform="translate(-1.55 -2.55)"/><path id="Trazado_44244" data-name="Trazado 44244" class="cls-1" d="M33,15a2.17,2.17,0,0,0-2.67-1.51l-5.19,1.44L12.89,12.32l-1.34,6.36L3.14,21a2.18,2.18,0,0,0-1.51,2.67L6.36,40.76A2.18,2.18,0,0,0,9,42.27l27.18-7.54a2.19,2.19,0,0,0,1.51-2.67l-.81-2.93,3,.64a2.16,2.16,0,0,0,2.55-1.66L44.44,19l-11-2.32Zm3.14,8.68.67-3.18a.89.89,0,0,1,1.05-.68l3.18.67a.9.9,0,0,1,.68,1.05L41,24.7a.9.9,0,0,1-1,.68l-3.18-.67a.88.88,0,0,1-.68-1.05ZM3.61,22.72l7.52-2.09,17.75-4.92,1.91-.54h.1a.41.41,0,0,1,.39.29l.22.81.7,2.53L4.26,26.55l-.93-3.34A.4.4,0,0,1,3.61,22.72ZM36,32.53a.4.4,0,0,1-.27.49L8.56,40.57h-.1a.42.42,0,0,1-.39-.29l-2.76-10,28-7.76L35,28.71Z" transform="translate(-1.55 -2.55)"/><path id="Trazado_44245" data-name="Trazado 44245" class="cls-1" d="M13,33.21a.89.89,0,0,0-1.09-.62l-3.18.89a.87.87,0,0,0-.61,1.08L9,37.74a.88.88,0,0,0,1.09.61l3.17-.88a.89.89,0,0,0,.62-1.09Z" transform="translate(-1.55 -2.55)"/></g></g></g></svg>