<svg id="Capa_1" data-name="Capa 1" xmlns="http://www.w3.org/2000/svg" xmlns:xlink="http://www.w3.org/1999/xlink" viewBox="0 0 80 26.48"><defs><style>.cls-1{fill:none;}.cls-2{clip-path:url(#clip-path);}.cls-3{fill:#616161;}</style><clipPath id="clip-path" transform="translate(-12.58 -41.5)"><rect class="cls-1" x="12.58" y="41.5" width="80" height="26.5"/></clipPath></defs><g id="movil-_antigenos" data-name="movil- antigenos"><g id="Artwork_4" data-name="Artwork 4"><g class="cls-2"><g id="Artwork_4-2" data-name="Artwork 4-2"><path id="Trazado_37571" data-name="Trazado 37571" class="cls-3" d="M33,45.2a.29.29,0,0,1-.29.3H25.58a.29.29,0,0,1-.3-.29V42.56a.3.3,0,0,1,.3-.3h1v1.62a.39.39,0,0,0,.37.4.38.38,0,0,0,.4-.36V42.26h1.44v1.62a.37.37,0,0,0,.36.4.38.38,0,0,0,.4-.36V42.26H31v1.62a.38.38,0,0,0,.76,0V42.26h1a.3.3,0,0,1,.29.3ZM30,66.57a1.11,1.11,0,0,1-.79.38H29.1a1.09,1.09,0,0,1-.79-.38,1.6,1.6,0,0,1-.3-1.23l.33-3.18H30l.32,3.18A1.59,1.59,0,0,1,30,66.57m2.7-25.07H25.58a1.05,1.05,0,0,0-1.06,1.06h0v2.61a1.05,1.05,0,0,0,1.06,1.06h2v7.5a.38.38,0,0,0,.76,0V46.26H30V61.43H28.34V55.55a.39.39,0,0,0-.37-.4.38.38,0,0,0-.4.36v6.27l-.35,3.5a2.31,2.31,0,0,0,.5,1.79,1.83,1.83,0,0,0,1.35.62h.15a1.83,1.83,0,0,0,1.35-.62,2.31,2.31,0,0,0,.5-1.79l-.35-3.5V46.26h2a1,1,0,0,0,1-1.06V42.56a1.05,1.05,0,0,0-1-1.06h0" transform="translate(-12.58 -41.5)"/><path id="Trazado_37572" data-name="Trazado 37572" class="cls-3" d="M22.23,43.94H13.34V42.29h8.89Zm-.76,18.22H16.89a.56.56,0,0,1-.56-.56h0V47.76a.56.56,0,0,1,.56-.56h4.58Zm.76-20.66H13.37a.79.79,0,0,0-.79.79h0v1.65a.78.78,0,0,0,.76.79v9a.38.38,0,0,0,.76,0v-9h7.34v1.7H16.89a1.33,1.33,0,0,0-1.32,1.33h0V61.6a1.32,1.32,0,0,0,1.32,1.32h4.58v.36a3.67,3.67,0,0,1-7.34,0V55.55a.38.38,0,0,0-.76,0v7.77a4.43,4.43,0,1,0,8.86,0h0V44.73a.77.77,0,0,0,.76-.79V42.29a.79.79,0,0,0-.76-.79" transform="translate(-12.58 -41.5)"/><path id="Trazado_37573" data-name="Trazado 37573" class="cls-3" d="M18.45,54.28h1v1h-1ZM18.06,56H19.8a.38.38,0,0,0,.38-.38V53.9a.38.38,0,0,0-.38-.38H18.06a.38.38,0,0,0-.38.38v1.74a.38.38,0,0,0,.38.38" transform="translate(-12.58 -41.5)"/><path id="Trazado_37574" data-name="Trazado 37574" class="cls-3" d="M18.45,58.43h1v1h-1Zm-.39,1.73H19.8a.38.38,0,0,0,.38-.38V58.05a.39.39,0,0,0-.38-.39H18.06a.39.39,0,0,0-.38.39v1.73a.38.38,0,0,0,.38.38" transform="translate(-12.58 -41.5)"/><path id="Trazado_37575" data-name="Trazado 37575" class="cls-3" d="M18.06,49.88H19.8a.39.39,0,0,0,.38-.39.38.38,0,0,0-.38-.38H18.06a.39.39,0,0,0,0,.77" transform="translate(-12.58 -41.5)"/><path id="Trazado_37576" data-name="Trazado 37576" class="cls-3" d="M18.06,51.64H19.8a.38.38,0,0,0,0-.76H18.06a.38.38,0,0,0,0,.76" transform="translate(-12.58 -41.5)"/><path id="Trazado_37577" data-name="Trazado 37577" class="cls-3" d="M89,63.31c-1.06,0-1.73-.56-1.73-1.47a1.49,1.49,0,0,1,1.52-1.48h.18a1.64,1.64,0,0,1,1.79,1.47,1.59,1.59,0,0,1-1.67,1.48H89m-.12-4.2a2.89,2.89,0,0,0-3.16,2.59c0,.07,0,.13,0,.2,0,1.7,1.26,2.64,3,2.64A2.93,2.93,0,0,0,91,63.63h0c0,2-1,3-2.64,3a2.85,2.85,0,0,1-1.64-.41l-.59,1.2a4.36,4.36,0,0,0,2.26.56c2.5,0,4.23-1.62,4.23-4.59s-1.38-4.29-3.73-4.29m-8,.12v1.35h1.82v7.32h1.61V59.22ZM76.88,65.1h3.4V63.81h-3.4Zm-8.16,1.44V60.6h2.09A2.89,2.89,0,0,1,74,63.18c0,.13,0,.26,0,.4a2.85,2.85,0,0,1-2.74,3,2.68,2.68,0,0,1-.4,0Zm-1.61,1.35h3.78c2.79,0,4.7-1.73,4.7-4.32s-1.9-4.32-4.7-4.32H67.11Zm-3.93,0h1.6V59.22H63.17Zm-2.53-8.64-2.87,6.64L54.9,59.22H53.16L57,67.86h1.58l3.76-8.64ZM48.29,66.6a3,3,0,1,1,3.05-3.06,2.94,2.94,0,0,1-2.84,3h-.18m0,1.41a4.66,4.66,0,1,0-4.67-4.64A4.66,4.66,0,0,0,48.32,68m-8.8,0a4.44,4.44,0,0,0,3.44-1.44l-1-1a3,3,0,0,1-5.36-2,3.05,3.05,0,0,1,3-3.05h0a3.05,3.05,0,0,1,2.32,1l1-1A4.55,4.55,0,1,0,39.49,68" transform="translate(-12.58 -41.5)"/><path id="Trazado_37578" data-name="Trazado 37578" class="cls-3" d="M90.05,58c1.44,0,2.14-.74,2.14-1.56,0-1.85-2.93-1.2-2.93-2.15,0-.32.26-.59,1-.59a3,3,0,0,1,1.41.42l.35-.89a3.51,3.51,0,0,0-1.76-.44c-1.44,0-2.14.71-2.14,1.59,0,1.88,2.93,1.23,2.93,2.17,0,.33-.29.53-1,.53a2.86,2.86,0,0,1-1.67-.53l-.41.89A3.55,3.55,0,0,0,90,58m-5.31-1a1.55,1.55,0,0,1-1.59-1.52.28.28,0,0,1,0-.09,1.58,1.58,0,1,1,3.16-.08v.08A1.54,1.54,0,0,1,84.8,57h-.09m0,1a2.51,2.51,0,1,0-.14,0h.14m-4.78-5.2v3.09L77.4,52.85h-1v5.08h1.14V54.84l2.53,3.09h1V52.84ZM72.76,57V55.78h2.35V54.9H72.76V53.78h2.68v-.94H71.62v5.09h3.9V57Zm-3.31-.18a1.82,1.82,0,0,1-.91.21,1.62,1.62,0,1,1,0-3.23,1.7,1.7,0,0,1,1.32.55l.76-.7a2.68,2.68,0,0,0-2.11-.88A2.62,2.62,0,0,0,68.17,58h.31a3.49,3.49,0,0,0,2-.65v-2h-1Zm-5.81,1.15h1.17V52.84H63.64Zm-.06-5.47h.88l1.32-1h-1.2Zm-3.34,5.47h1.17V53.81H63v-1h-4.4v1h1.61Zm-3.4-5.09v3.09l-2.53-3.08h-1v5.08h1.14V54.84L57,57.93h1V52.84Zm-7.67,3.09L50,54l.8,1.94Zm2.41,2h1.23l-2.26-5H49.41l-2.26,5h1.2l.44-1.09h2.35ZM42.07,57V55.78h2.35V54.9H42.07V53.78h2.67v-.94H40.93v5.09h3.9V57Zm-6,0V53.81h1.06a1.56,1.56,0,0,1,.24,3.12h-1.3Zm-1.17,1h2.29a2.54,2.54,0,1,0,.5-5,2.09,2.09,0,0,0-.5,0H34.94Z" transform="translate(-12.58 -41.5)"/><path id="Trazado_37579" data-name="Trazado 37579" class="cls-3" d="M85.16,47.2,86,45l.85,2.2Zm3.11,3.68h3.08L87.5,42.06H84.59l-3.84,8.82h3l.59-1.53h3.35Zm-11.6-2.09H74.88V47.41h1.79c.65,0,1,.23,1,.7s-.32.71-1,.71m-.41-4.68c.67,0,1,.24,1,.65s-.29.65-1,.65H74.88v-1.3ZM79,46.26a2.06,2.06,0,0,0,1.23-1.91c0-1.32-1.14-2.29-3.55-2.29H72v8.81h5c2.44,0,3.73-.88,3.73-2.44A2.25,2.25,0,0,0,79,46.26M66.43,48.64V47.47h3.73V45.32H66.43v-1h4.23V42.06H63.5v8.82h7.3V48.64Zm-8.57,2.44c2.7,0,4.28-1.53,4.28-4.17V42.06h-2.9v4.76c0,1.35-.53,1.85-1.35,1.85s-1.35-.5-1.35-1.85V42.06h-3v4.85c0,2.64,1.59,4.17,4.29,4.17m-8.34-5.7c0,.65-.38,1-1.2,1H47.24V44.35h1.08c.82,0,1.2.38,1.2,1m0,5.5h3.17l-1.84-2.74a3,3,0,0,0,1.67-2.76c0-2-1.56-3.32-4-3.32H44.27v8.82h3V48.64H48ZM39.11,46.41H38V44.35h1.09c.82,0,1.2.38,1.2,1s-.39,1-1.2,1m.17-4.35H35.06v8.82h3V48.7h1.26c2.47,0,4-1.29,4-3.32s-1.55-3.32-4-3.32" transform="translate(-12.58 -41.5)"/></g></g></g></g></svg>