<svg id="Capa_1" data-name="Capa 1" xmlns="http://www.w3.org/2000/svg" xmlns:xlink="http://www.w3.org/1999/xlink" viewBox="0 0 84.88 35.43"><defs><style>.cls-1{fill:none;}.cls-2{clip-path:url(#clip-path);}.cls-3{fill:#616161;}</style><clipPath id="clip-path" transform="translate(-10.04 -37.2)"><rect class="cls-1" x="10.04" y="37.2" width="86.52" height="35.29"/></clipPath></defs><g id="movil-_anticuerpos" data-name="movil- anticuerpos"><g id="Grupo_25168" data-name="Grupo 25168"><g id="Grupo_24219" data-name="Grupo 24219"><g id="Grupo_24218" data-name="Grupo 24218"><g id="Grupo_24217" data-name="Grupo 24217"><g class="cls-2"><g id="Grupo_24216" data-name="Grupo 24216"><path id="Trazado_41651" data-name="Trazado 41651" class="cls-3" d="M17.47,61.76a.68.68,0,0,0,.69.68h2v-2h-.69a.61.61,0,1,1,0-1.21h.69V57.83h-.69a.61.61,0,1,1,0-1.21h.69V55.24h-.69a.61.61,0,1,1,0-1.21h.69V52h-2a.69.69,0,0,0-.69.69ZM13.57,43v4.53A3.79,3.79,0,0,0,14,47.3a3.36,3.36,0,0,1,3.14,0,2.15,2.15,0,0,0,2.06,0,3.23,3.23,0,0,1,1-.34V43Zm6.58-4.49a0,0,0,0,0,0,0H18.77v3.31h1.38Zm-2.6,0H16.17v3.31h1.38Zm-4,0v3.27H15V38.41H13.61a0,0,0,0,0,0,.05m4.59,12.33h2V48.2a3.79,3.79,0,0,0-.42.18,3.36,3.36,0,0,1-3.14,0,2.19,2.19,0,0,0-2.05,0,3.12,3.12,0,0,1-1,.34V60.46a.61.61,0,0,1-1.21,0V43h0a.61.61,0,1,1,0-1.22h.09V38.46a1.25,1.25,0,0,1,1.25-1.26h6.5a1.25,1.25,0,0,1,1.26,1.26v3.27h0A.61.61,0,0,1,21.46,43h-.09V68.23a4.49,4.49,0,0,1-3,4.23.6.6,0,0,1-.79-.32.61.61,0,0,1,.33-.8l.06,0a3.27,3.27,0,0,0,2.2-3.09V63.66h-2a1.91,1.91,0,0,1-1.91-1.9V52.69a1.91,1.91,0,0,1,1.91-1.9" transform="translate(-10.04 -37.2)"/><path id="Trazado_41652" data-name="Trazado 41652" class="cls-3" d="M12,66.62l1.67-2.5,1.67,2.5a2.06,2.06,0,0,1,.13,2.1,2,2,0,0,1-1.69,1.1h-.22a2,2,0,0,1-1.69-1.1,2.08,2.08,0,0,1,.12-2.1Zm1.49,4.78h.36a3.56,3.56,0,0,0,3-2,3.64,3.64,0,0,0-.22-3.7l-2.34-3.49A.8.8,0,0,0,13.21,62a.88.88,0,0,0-.21.22l-2.34,3.49a3.62,3.62,0,0,0-.21,3.7,3.52,3.52,0,0,0,3,2" transform="translate(-10.04 -37.2)"/><g id="Grupo_24214" data-name="Grupo 24214"><path id="Trazado_41653" data-name="Trazado 41653" class="cls-3" d="M27.21,55.87H23.84v-2H33v2H29.65v8.51H27.21Z" transform="translate(-10.04 -37.2)"/><path id="Trazado_41654" data-name="Trazado 41654" class="cls-3" d="M33.53,59.14a5.78,5.78,0,1,1,6.11,5.42H39.3a5.45,5.45,0,0,1-5.76-5.11C33.54,59.35,33.53,59.25,33.53,59.14Zm9.06,0a3.3,3.3,0,1,0-3.3,3.36,3.21,3.21,0,0,0,3.3-3.11A1,1,0,0,0,42.59,59.14Z" transform="translate(-10.04 -37.2)"/><path id="Trazado_41655" data-name="Trazado 41655" class="cls-3" d="M48.93,55.87H45.56v-2h9.18v2H51.37v8.51H48.93Z" transform="translate(-10.04 -37.2)"/><path id="Trazado_41656" data-name="Trazado 41656" class="cls-3" d="M62.46,62.14H57.57l-.94,2.24h-2.5l4.7-10.49h2.41L66,64.38H63.39Zm-.77-1.85-1.67-4-1.67,4Z" transform="translate(-10.04 -37.2)"/><path id="Trazado_41657" data-name="Trazado 41657" class="cls-3" d="M67.05,53.89h2.43v8.52h5.29v2H67.05Z" transform="translate(-10.04 -37.2)"/><path id="Trazado_41658" data-name="Trazado 41658" class="cls-3" d="M84.29,62.44v1.94H76.14V53.89h8v2H78.56v2.28h4.89V60H78.56v2.43Z" transform="translate(-10.04 -37.2)"/><path id="Trazado_41659" data-name="Trazado 41659" class="cls-3" d="M85.41,63.35l.82-1.83a6.21,6.21,0,0,0,3.48,1.1c1.45,0,2-.48,2-1.13,0-2-6.12-.61-6.12-4.51,0-1.78,1.44-3.27,4.44-3.27a7.16,7.16,0,0,1,3.65.93L93,56.49A5.88,5.88,0,0,0,90,55.66c-1.44,0-2,.54-2,1.2,0,1.93,6.13.6,6.13,4.45,0,1.76-1.46,3.26-4.47,3.26A7.57,7.57,0,0,1,85.41,63.35Z" transform="translate(-10.04 -37.2)"/></g><g id="Grupo_24215" data-name="Grupo 24215"><path id="Trazado_41660" data-name="Trazado 41660" class="cls-3" d="M24.11,69.56a3.24,3.24,0,0,1,5.61-2l-.87.8a1.93,1.93,0,0,0-1.48-.69,1.88,1.88,0,1,0,0,3.76,1.92,1.92,0,0,0,1.48-.7l.87.8a3.24,3.24,0,0,1-4.57.19,3.18,3.18,0,0,1-1-2.18Z" transform="translate(-10.04 -37.2)"/><path id="Trazado_41661" data-name="Trazado 41661" class="cls-3" d="M30.55,69.92V66.63h1.36v3.24c0,1.11.49,1.57,1.32,1.57s1.31-.46,1.31-1.57V66.63h1.35v3.29a2.67,2.67,0,0,1-5.33.1.17.17,0,0,1,0-.1Z" transform="translate(-10.04 -37.2)"/><path id="Trazado_41662" data-name="Trazado 41662" class="cls-3" d="M41,71.24H38.25l-.52,1.26h-1.4L39,66.63H40.3l2.63,5.87H41.5Zm-.43-1L39.62,68l-.93,2.24Z" transform="translate(-10.04 -37.2)"/><path id="Trazado_41663" data-name="Trazado 41663" class="cls-3" d="M49,66.63V72.5H47.83l-2.94-3.56V72.5H43.55V66.63h1.13l2.92,3.56V66.63Z" transform="translate(-10.04 -37.2)"/><path id="Trazado_41664" data-name="Trazado 41664" class="cls-3" d="M51.57,67.74H49.68V66.63h5.13v1.11H52.93V72.5H51.57Z" transform="translate(-10.04 -37.2)"/><path id="Trazado_41665" data-name="Trazado 41665" class="cls-3" d="M55.55,66.63h1.36V72.5H55.55Z" transform="translate(-10.04 -37.2)"/><path id="Trazado_41666" data-name="Trazado 41666" class="cls-3" d="M59.53,67.74H57.64V66.63h5.13v1.11H60.89V72.5H59.53Z" transform="translate(-10.04 -37.2)"/><path id="Trazado_41667" data-name="Trazado 41667" class="cls-3" d="M67.09,71.24H64.36l-.53,1.26h-1.4l2.63-5.87H66.4L69,72.5H67.61Zm-.43-1L65.73,68l-.94,2.24Z" transform="translate(-10.04 -37.2)"/><path id="Trazado_41668" data-name="Trazado 41668" class="cls-3" d="M70.59,67.74H68.7V66.63h5.13v1.11H72V72.5H70.59Z" transform="translate(-10.04 -37.2)"/><path id="Trazado_41669" data-name="Trazado 41669" class="cls-3" d="M74.57,66.63h1.36V72.5H74.57Z" transform="translate(-10.04 -37.2)"/><path id="Trazado_41670" data-name="Trazado 41670" class="cls-3" d="M83,66.63,80.41,72.5H79.06l-2.54-5.87H78l1.8,4.19,1.81-4.19Z" transform="translate(-10.04 -37.2)"/><path id="Trazado_41671" data-name="Trazado 41671" class="cls-3" d="M83,69.56a3.23,3.23,0,1,1,3.41,3h-.19A3,3,0,0,1,83,69.74Zm5.06,0a1.85,1.85,0,1,0-1.84,1.88,1.79,1.79,0,0,0,1.84-1.74v-.14Z" transform="translate(-10.04 -37.2)"/><path id="Trazado_41672" data-name="Trazado 41672" class="cls-3" d="M90,71.92l.47-1a3.53,3.53,0,0,0,1.94.61c.81,0,1.13-.27,1.13-.63,0-1.1-3.42-.34-3.42-2.52,0-1,.81-1.83,2.48-1.83a4.09,4.09,0,0,1,2,.52l-.42,1a3.38,3.38,0,0,0-1.64-.46c-.8,0-1.11.3-1.11.67,0,1.08,3.42.34,3.42,2.49,0,1-.82,1.82-2.5,1.82A4.26,4.26,0,0,1,90,71.92Z" transform="translate(-10.04 -37.2)"/></g></g></g></g></g></g><g id="Grupo_24220" data-name="Grupo 24220"><path id="Trazado_41673" data-name="Trazado 41673" class="cls-3" d="M28.64,50.09H26.22l-.43,1.11H23.61l2.78-6.37H28.5l2.79,6.37H29.07Zm-.59-1.55-.62-1.6-.62,1.6Z" transform="translate(-10.04 -37.2)"/><path id="Trazado_41674" data-name="Trazado 41674" class="cls-3" d="M37.92,44.83V51.2H36.16l-2.43-2.89V51.2H31.64V44.83h1.77l2.42,2.9v-2.9Z" transform="translate(-10.04 -37.2)"/><path id="Trazado_41675" data-name="Trazado 41675" class="cls-3" d="M40.35,46.49H38.48V44.83h5.88v1.66H42.5V51.2H40.35Z" transform="translate(-10.04 -37.2)"/><path id="Trazado_41676" data-name="Trazado 41676" class="cls-3" d="M44.92,44.83h2.15V51.2H44.92Z" transform="translate(-10.04 -37.2)"/><path id="Trazado_41677" data-name="Trazado 41677" class="cls-3" d="M47.85,48a3.32,3.32,0,0,1,3.31-3.34h.25A3.45,3.45,0,0,1,54.26,46l-1.35,1.21a1.74,1.74,0,0,0-1.4-.75,1.6,1.6,0,0,0,0,3.19,1.74,1.74,0,0,0,1.4-.75l1.35,1.21a3.43,3.43,0,0,1-2.86,1.28,3.33,3.33,0,0,1-3.54-3.09C47.86,48.18,47.85,48.1,47.85,48Z" transform="translate(-10.04 -37.2)"/><path id="Trazado_41678" data-name="Trazado 41678" class="cls-3" d="M54.75,48.33v-3.5H56.9v3.44c0,1,.37,1.34,1,1.34s1-.36,1-1.34V44.83H61v3.5a3.11,3.11,0,0,1-6.21,0Z" transform="translate(-10.04 -37.2)"/><path id="Trazado_41679" data-name="Trazado 41679" class="cls-3" d="M67.24,49.58V51.2h-5.3V44.83h5.18v1.62H64.06v.74h2.7v1.55h-2.7v.84Z" transform="translate(-10.04 -37.2)"/><path id="Trazado_41680" data-name="Trazado 41680" class="cls-3" d="M70.81,49.6h-.59v1.6H68.08V44.83h3.06c1.78,0,2.91.93,2.91,2.4a2.15,2.15,0,0,1-1.2,2l1.34,2h-2.3Zm.2-3.11h-.79V48H71c.59,0,.87-.28.87-.75s-.28-.74-.87-.74Z" transform="translate(-10.04 -37.2)"/><path id="Trazado_41681" data-name="Trazado 41681" class="cls-3" d="M80.84,47.23c0,1.48-1.13,2.4-2.9,2.4H77V51.2H74.87V44.83h3.07C79.7,44.83,80.84,45.76,80.84,47.23Zm-2.17,0c0-.46-.28-.74-.87-.74H77V48h.79c.58,0,.87-.28.87-.75Z" transform="translate(-10.04 -37.2)"/><path id="Trazado_41682" data-name="Trazado 41682" class="cls-3" d="M81.37,48a3.61,3.61,0,1,1,3.88,3.32H85a3.37,3.37,0,0,1-3.59-3.12C81.38,48.16,81.37,48.09,81.37,48Zm5,0a1.42,1.42,0,1,0,0,.13S86.4,48.06,86.4,48Z" transform="translate(-10.04 -37.2)"/><path id="Trazado_41683" data-name="Trazado 41683" class="cls-3" d="M89,50.69l.69-1.57a4.43,4.43,0,0,0,2.1.59c.61,0,.83-.13.83-.35,0-.8-3.52-.15-3.52-2.53,0-1.18,1-2.15,3-2.15a5.16,5.16,0,0,1,2.4.56l-.65,1.55A3.93,3.93,0,0,0,92,46.32c-.62,0-.82.18-.82.4,0,.76,3.52.13,3.52,2.48,0,1.16-1,2.14-3,2.14A5.71,5.71,0,0,1,89,50.69Z" transform="translate(-10.04 -37.2)"/></g><g id="Grupo_24223" data-name="Grupo 24223"><g class="cls-2"><g id="Grupo_24222" data-name="Grupo 24222"><g id="Grupo_24221" data-name="Grupo 24221"><path id="Trazado_41684" data-name="Trazado 41684" class="cls-3" d="M27.87,38.64V42.4h-.72l-1.88-2.28V42.4h-.86V38.64h.72L27,40.92V38.64Z" transform="translate(-10.04 -37.2)"/><path id="Trazado_41685" data-name="Trazado 41685" class="cls-3" d="M28.73,40.75v-2.1h.87v2.07c0,.71.32,1,.84,1s.84-.3.84-1V38.64h.87v2.1a1.71,1.71,0,1,1-3.42,0Z" transform="translate(-10.04 -37.2)"/><path id="Trazado_41686" data-name="Trazado 41686" class="cls-3" d="M35.93,41.7v.7H33V38.64h2.85v.7h-2v.82h1.75v.67H33.88v.87Z" transform="translate(-10.04 -37.2)"/><path id="Trazado_41687" data-name="Trazado 41687" class="cls-3" d="M40.21,38.64,38.57,42.4h-.86l-1.62-3.76H37l1.14,2.69,1.17-2.68Z" transform="translate(-10.04 -37.2)"/><path id="Trazado_41688" data-name="Trazado 41688" class="cls-3" d="M40.25,40.52a2.06,2.06,0,1,1,2.18,1.94h-.12a1.94,1.94,0,0,1-2.06-1.83Zm3.24,0a1.18,1.18,0,1,0-1.18,1.2,1.15,1.15,0,0,0,1.18-1.11v-.09Z" transform="translate(-10.04 -37.2)"/><path id="Trazado_41689" data-name="Trazado 41689" class="cls-3" d="M49.48,41.7v.7H46.56V38.64h2.85v.7h-2v.82h1.75v.67H47.42v.87Z" transform="translate(-10.04 -37.2)"/><path id="Trazado_41690" data-name="Trazado 41690" class="cls-3" d="M49.88,42l.3-.65a2.27,2.27,0,0,0,1.24.39c.52,0,.73-.17.73-.4,0-.7-2.19-.22-2.19-1.62,0-.64.51-1.17,1.59-1.17a2.48,2.48,0,0,1,1.3.34l-.26.66a2.06,2.06,0,0,0-1.05-.3c-.52,0-.72.19-.72.43,0,.69,2.2.21,2.2,1.59,0,.63-.53,1.16-1.6,1.16A2.61,2.61,0,0,1,49.88,42Z" transform="translate(-10.04 -37.2)"/><path id="Trazado_41691" data-name="Trazado 41691" class="cls-3" d="M54.34,39.35H53.13v-.71h3.29v.71H55.21v3h-.87Z" transform="translate(-10.04 -37.2)"/><path id="Trazado_41692" data-name="Trazado 41692" class="cls-3" d="M56.79,40.75v-2.1h.87v2.07c0,.71.32,1,.84,1s.84-.3.84-1V38.64h.87v2.1a1.71,1.71,0,0,1-3.42,0Z" transform="translate(-10.04 -37.2)"/><path id="Trazado_41693" data-name="Trazado 41693" class="cls-3" d="M61.07,38.64h1.72a1.89,1.89,0,0,1,.37,3.76H61.07Zm1.67,3a1.17,1.17,0,0,0,.14-2.33h-.94v2.33Z" transform="translate(-10.04 -37.2)"/><path id="Trazado_41694" data-name="Trazado 41694" class="cls-3" d="M65.52,38.64h.88V42.4h-.88Z" transform="translate(-10.04 -37.2)"/><path id="Trazado_41695" data-name="Trazado 41695" class="cls-3" d="M67.06,40.52a2.06,2.06,0,1,1,2.18,1.94h-.12a1.93,1.93,0,0,1-2.06-1.83Zm3.24,0a1.18,1.18,0,1,0-1.18,1.2,1.15,1.15,0,0,0,1.18-1.11Z" transform="translate(-10.04 -37.2)"/></g></g></g></g></g></g></svg>