<?xml version="1.0" encoding="utf-8"?>
<!-- Generator: Adobe Illustrator 25.0.0, SVG Export Plug-In . SVG Version: 6.00 Build 0)  -->
<svg version="1.1" id="Capa_1" xmlns="http://www.w3.org/2000/svg" xmlns:xlink="http://www.w3.org/1999/xlink" x="0px" y="0px"
	 viewBox="0 0 39.4 39.4" style="enable-background:new 0 0 39.4 39.4;" xml:space="preserve">
<style type="text/css">
	.st0{fill:#616161;}
</style>
<g id="movil-_resultados_con_copy" transform="translate(15381 -11159)">
	<g id="Iconos_Menu_Principal_Consulta_tus_resultados" transform="translate(-15345.611 11184.107)">
		<path id="Iconos_Menu_Principal_Consulta_tus_resultados-2" class="st0" d="M-26.2-18.2c0-0.5,0.4-0.9,0.9-0.9c0,0,0,0,0,0h9.9
			c0.5,0,1,0.3,1,0.9c0,0.5-0.3,1-0.9,1h-10C-25.8-17.3-26.2-17.7-26.2-18.2C-26.2-18.2-26.2-18.2-26.2-18.2L-26.2-18.2z M-14.5-13
			c0-0.5-0.4-0.9-0.9-0.9h-9.9c-0.5,0-1,0.3-1,0.9c0,0.5,0.3,1,0.9,1l0,0h10c0.5,0,0.9-0.4,0.9-0.8C-14.5-13-14.5-13-14.5-13z
			 M-19,1.9c-0.5,0-0.9,0.5-0.9,1c0,0,0,0,0,0c0,0.5,0.4,0.8,0.9,0.9h2.7v2.7c0,0.5,0.4,1,1,1c0.5,0,0.9-0.4,0.9-1V3.8h2.7
			c0.5,0,0.9-0.5,0.9-1c0,0,0,0,0,0c0-0.5-0.4-0.8-0.9-0.9h-2.7v-2.6c0-0.5-0.4-0.9-0.9-0.9c-0.5,0-1,0.4-1,0.9v2.7L-19,1.9L-19,1.9
			z M3.4-6.7v19.3c0,0.5-0.4,1-0.9,1h-35.8c-0.5,0-0.9-0.4-0.9-0.9c0,0,0,0,0,0V-8.8c0-0.5,0.4-0.9,0.9-0.9c0,0,0,0,0,0h3.5v-13.7
			c0-0.5,0.4-0.9,0.9-0.9c0,0,0,0,0,0h27c0.5,0,0.9,0.4,0.9,0.9c0,0,0,0,0,0l0,0v15.7h3.5C3-7.7,3.4-7.3,3.4-6.7z M-28-9.8h9.5
			c0.3,0,0.5,0.1,0.7,0.3l1.8,1.8h13.1v-14.7H-28V-9.8z M1.5-5.8h-17.9c-0.3,0-0.5-0.1-0.7-0.3l-1.8-1.8h-13.5v19.5H1.5V-5.8z
			 M-11.9-14.2c0.5,0.4,0.8,0.9,1,1.5c0.1,0.4,0.5,0.6,0.9,0.6h0.1c0.4,0,0.8-0.3,0.9-0.7c0,0,0.9-3.5,3.3-4.8
			c0.5-0.2,0.7-0.8,0.4-1.3c-0.2-0.5-0.8-0.7-1.3-0.4c0,0,0,0-0.1,0l0,0c-1.6,0.9-2.8,2.4-3.5,4.1c-0.2-0.3-0.5-0.5-0.8-0.6
			c-0.5-0.2-1,0-1.3,0.4c0,0,0,0,0,0C-12.5-15-12.3-14.5-11.9-14.2C-11.9-14.2-11.9-14.2-11.9-14.2L-11.9-14.2z"/>
	</g>
</g>
</svg>
