<svg xmlns="http://www.w3.org/2000/svg" width="18.938" height="18.938" viewBox="0 0 18.938 18.938">
  <g id="user" transform="translate(-697.988 -330.5)">
    <path id="Icon_awesome-user-circle" data-name="Icon awesome-user-circle" d="M9.469.563a9.469,9.469,0,1,0,9.469,9.469A9.467,9.467,0,0,0,9.469.563Zm0,3.665a3.36,3.36,0,1,1-3.36,3.36A3.36,3.36,0,0,1,9.469,4.228Zm0,13.134a7.316,7.316,0,0,1-5.593-2.6,4.257,4.257,0,0,1,3.761-2.283.934.934,0,0,1,.271.042,5.055,5.055,0,0,0,1.562.263,5.036,5.036,0,0,0,1.562-.263.934.934,0,0,1,.271-.042,4.257,4.257,0,0,1,3.761,2.283A7.316,7.316,0,0,1,9.469,17.362Z" transform="translate(697.988 329.938)" fill="#9a9a9a"/>
  </g>
</svg>