<svg xmlns="http://www.w3.org/2000/svg" width="11.541" height="25.627" viewBox="0 0 11.541 25.627">
  <path id="Iconos_géneros_Mujer" data-name="Iconos géneros_Mujer" d="M35.673,15.186h4.164a.513.513,0,0,0,.513-.513V12.595a2.595,2.595,0,0,0-5.189,0v2.079A.513.513,0,0,0,35.673,15.186Zm2.082-4.164a1.573,1.573,0,0,1,1.57,1.57v1.573H36.186v-1.57a1.573,1.573,0,0,1,1.57-1.57ZM43.48,27.939l-2.46-5.446V19.319a3.274,3.274,0,0,0-3.187-3.258h-.077a3.267,3.267,0,0,0-3.264,3.258v3.264L32.031,28a.509.509,0,0,0,.106.577,7.749,7.749,0,0,0,3.184,1.874v2.745a2.435,2.435,0,0,0,4.869,0V30.428a7.727,7.727,0,0,0,3.187-1.922A.506.506,0,0,0,43.48,27.939ZM37.755,34.6a1.413,1.413,0,0,1-1.409-1.409V30.684a8.562,8.562,0,0,0,1.377.115,8.329,8.329,0,0,0,1.442-.128v2.521A1.413,1.413,0,0,1,37.755,34.6Zm1.794-5.061h0a7.368,7.368,0,0,1-3.581,0h0a6.727,6.727,0,0,1-2.841-1.477l2.354-5.177a.532.532,0,0,0,.045-.211V19.319a2.242,2.242,0,0,1,2.22-2.242h.048A2.242,2.242,0,0,1,40,19.319v3.267a.532.532,0,0,0,.045.211l2.358,5.228A6.772,6.772,0,0,1,39.549,29.541Z" transform="translate(-31.984 -10)" fill="#616161"/>
</svg>
